{
  "source": "C:\\Users\\Peter\\Desktop\\stuff\\MIUN\\quantitative_research\\video_compression\\videos\\BVI-HD\\BVI-HD_CDVL_videos\\ORIG\\Hamster_1920x1080_60fps.mp4",
  "output": "C:\\Users\\Peter\\Desktop\\stuff\\MIUN\\quantitative_research\\video_compression\\compressed_videos\\BVI-HD\\hevc\\1.5\\Hamster_1920x1080_60fps_hevc.mp4",
  "codec": "hevc",
  "ok": "Input #0, mov,mp4,m4a,3gp,3g2,mj2, from 'C:\\Users\\Peter\\Desktop\\stuff\\MIUN\\quantitative_research\\video_compression\\videos\\BVI-HD\\BVI-HD_CDVL_videos\\ORIG\\Hamster_1920x1080_60fps.mp4':\n  Metadata:\n    major_brand     : isom\n    minor_version   : 512\n    compatible_brands: isomiso2avc1mp41\n    encoder         : Lavf54.28.101\n  Duration: 00:00:05.00, start: 0.000000, bitrate: 208485 kb/s\n  Stream #0:0[0x1](und): Video: h264 (High 4:4:4 Predictive) (avc1 / 0x31637661), yuv420p(progressive), 1920x1080, 208481 kb/s, 60 fps, 60 tbr, 60 tbn (default)\n    Metadata:\n      handler_name    : VideoHandler\n      vendor_id       : [0][0][0][0]\n[out#0/mp4 @ 0000022df10de040] Codec AVOption b:a (set bitrate (in bits/s)) has not been used for any stream. The most likely reason is either wrong type (e.g. a video option with no video streams) or that it is a private option of some decoder which was not actually used for any stream.\nStream mapping:\n  Stream #0:0 -> #0:0 (h264 (native) -> hevc (libx265))\nPress [q] to stop, [?] for help\n[libx265 @ 0000022df082c740] Unknown option: \"aq-mode.\nx265 [info]: HEVC encoder version 4.1+190-8f11c33ac\nx265 [info]: build info [Windows][GCC 15.1.0][64 bit] 10bit\nx265 [info]: using cpu capabilities: MMX2 SSE2Fast LZCNT SSSE3 SSE4.2 AVX FMA3 BMI2 AVX2\nx265 [info]: Main 10 profile, Level-4.1 (Main tier)\nx265 [info]: Thread pool created using 12 threads\nx265 [info]: Slices                              : 1\nx265 [info]: frame threads / pool features       : 3 / wpp(17 rows)\nx265 [info]: Coding QT: max CU size, min CU size : 64 / 8\nx265 [info]: Residual QT: max TU size, max depth : 32 / 1 inter / 1 intra\nx265 [info]: ME / range / subpel / merge         : star / 57 / 3 / 3\nx265 [info]: Keyframe min / max / scenecut / bias  : 25 / 250 / 40 / 5.00 \nx265 [info]: Lookahead / bframes / badapt        : 25 / 4 / 2\nx265 [info]: b-pyramid / weightp / weightb       : 1 / 1 / 0\nx265 [info]: References / ref-limit  cu / depth  : 4 / on / on\nx265 [info]: AQ: mode / str / qg-size / cu-tree  : 2 / 1.0 / 32 / 1\nx265 [info]: Rate Control / qCompress            : ABR-1500 kbps / 0.60\nx265 [info]: VBV/HRD buffer / max-rate / init    : 1500 / 1500 / 0.750\nx265 [info]: tools: rect limit-modes rd=4 psy-rd=2.00 rdoq=2 psy-rdoq=1.00\nx265 [info]: tools: rskip mode=1 signhide tmvp strong-intra-smoothing lslices=4\nx265 [info]: tools: deblock sao dhdr10-info\nOutput #0, mp4, to 'C:\\Users\\Peter\\Desktop\\stuff\\MIUN\\quantitative_research\\video_compression\\compressed_videos\\BVI-HD\\hevc\\1.5\\Hamster_1920x1080_60fps_hevc.mp4':\n  Metadata:\n    major_brand     : isom\n    minor_version   : 512\n    compatible_brands: isomiso2avc1mp41\n    encoder         : Lavf62.3.100\n  Stream #0:0(und): Video: hevc (hev1 / 0x31766568), yuv420p10le(tv, progressive), 1920x1080, q=2-31, 1500 kb/s, 60 fps, 15360 tbn (default)\n    Metadata:\n      encoder         : Lavc62.11.100 libx265\n      handler_name    : VideoHandler\n      vendor_id       : [0][0][0][0]\n    Side data:\n      cpb: bitrate max/min/avg: 1500000/0/1500000 buffer size: 1500000 vbv_delay: N/A\nframe=    0 fps=0.0 q=0.0 size=       0KiB time=N/A bitrate=N/A speed=N/A elapsed=0:00:01.94    \nframe=    0 fps=0.0 q=0.0 size=       0KiB time=N/A bitrate=N/A speed=N/A elapsed=0:00:02.70    \nframe=    0 fps=0.0 q=0.0 size=       0KiB time=N/A bitrate=N/A speed=N/A elapsed=0:00:03.32    \nframe=    0 fps=0.0 q=0.0 size=       0KiB time=N/A bitrate=N/A speed=N/A elapsed=0:00:03.89    \nframe=    0 fps=0.0 q=0.0 size=       0KiB time=N/A bitrate=N/A speed=N/A elapsed=0:00:04.47    \nframe=    0 fps=0.0 q=0.0 size=       0KiB time=N/A bitrate=N/A speed=N/A elapsed=0:00:05.00    \nframe=    0 fps=0.0 q=0.0 size=       0KiB time=N/A bitrate=N/A speed=N/A elapsed=0:00:05.61    \nframe=    0 fps=0.0 q=0.0 size=       0KiB time=N/A bitrate=N/A speed=N/A elapsed=0:00:06.20    \nframe=    0 fps=0.0 q=0.0 size=       0KiB time=N/A bitrate=N/A speed=N/A elapsed=0:00:06.76    \nframe=    0 fps=0.0 q=0.0 size=       0KiB time=N/A bitrate=N/A speed=N/A elapsed=0:00:07.59    \nframe=    0 fps=0.0 q=0.0 size=       0KiB time=N/A bitrate=N/A speed=N/A elapsed=0:00:08.36    \nframe=    0 fps=0.0 q=0.0 size=       0KiB time=N/A bitrate=N/A speed=N/A elapsed=0:00:09.42    \nframe=    0 fps=0.0 q=0.0 size=       0KiB time=N/A bitrate=N/A speed=N/A elapsed=0:00:09.94    \nframe=    0 fps=0.0 q=0.0 size=       0KiB time=N/A bitrate=N/A speed=N/A elapsed=0:00:10.45    \nframe=    0 fps=0.0 q=0.0 size=       0KiB time=N/A bitrate=N/A speed=N/A elapsed=0:00:10.96    \nframe=    0 fps=0.0 q=0.0 size=       0KiB time=N/A bitrate=N/A speed=N/A elapsed=0:00:11.48    \nframe=    0 fps=0.0 q=0.0 size=       0KiB time=N/A bitrate=N/A speed=N/A elapsed=0:00:11.99    \nframe=    0 fps=0.0 q=0.0 size=       0KiB time=N/A bitrate=N/A speed=N/A elapsed=0:00:12.51    \nframe=    0 fps=0.0 q=0.0 size=       0KiB time=N/A bitrate=N/A speed=N/A elapsed=0:00:13.02    \nframe=    0 fps=0.0 q=0.0 size=       0KiB time=N/A bitrate=N/A speed=N/A elapsed=0:00:13.54    \nframe=    0 fps=0.0 q=0.0 size=       0KiB time=N/A bitrate=N/A speed=N/A elapsed=0:00:14.07    \nframe=    0 fps=0.0 q=0.0 size=       0KiB time=N/A bitrate=N/A speed=N/A elapsed=0:00:14.58    \nframe=    0 fps=0.0 q=0.0 size=       0KiB time=N/A bitrate=N/A speed=N/A elapsed=0:00:15.09    \nframe=    0 fps=0.0 q=0.0 size=       0KiB time=N/A bitrate=N/A speed=N/A elapsed=0:00:15.61    \nframe=    0 fps=0.0 q=0.0 size=       0KiB time=N/A bitrate=N/A speed=N/A elapsed=0:00:16.13    \nframe=    0 fps=0.0 q=0.0 size=       0KiB time=N/A bitrate=N/A speed=N/A elapsed=0:00:16.64    \nframe=    0 fps=0.0 q=0.0 size=       0KiB time=N/A bitrate=N/A speed=N/A elapsed=0:00:17.15    \nframe=    0 fps=0.0 q=0.0 size=       0KiB time=N/A bitrate=N/A speed=N/A elapsed=0:00:17.67    \nframe=    0 fps=0.0 q=0.0 size=       0KiB time=N/A bitrate=N/A speed=N/A elapsed=0:00:18.18    \nframe=    0 fps=0.0 q=0.0 size=       0KiB time=N/A bitrate=N/A speed=N/A elapsed=0:00:18.69    \nframe=    0 fps=0.0 q=0.0 size=       0KiB time=N/A bitrate=N/A speed=N/A elapsed=0:00:19.21    \nframe=    0 fps=0.0 q=0.0 size=       0KiB time=N/A bitrate=N/A speed=N/A elapsed=0:00:19.73    \nframe=    0 fps=0.0 q=0.0 size=       0KiB time=N/A bitrate=N/A speed=N/A elapsed=0:00:20.25    \nframe=    0 fps=0.0 q=0.0 size=       0KiB time=N/A bitrate=N/A speed=N/A elapsed=0:00:20.76    \nframe=    0 fps=0.0 q=0.0 size=       0KiB time=N/A bitrate=N/A speed=N/A elapsed=0:00:21.28    \nframe=    2 fps=0.1 q=44.6 size=       0KiB time=00:00:00.00 bitrate=N/A speed=   0x elapsed=0:00:21.79    \nframe=    2 fps=0.1 q=44.6 size=       0KiB time=00:00:00.00 bitrate=N/A speed=   0x elapsed=0:00:22.31    \nframe=    2 fps=0.1 q=44.6 size=       0KiB time=00:00:00.00 bitrate=N/A speed=   0x elapsed=0:00:22.83    \nframe=    3 fps=0.1 q=46.3 size=       0KiB time=00:00:00.01 bitrate=  21.1kbits/s speed=0.000714x elapsed=0:00:23.33    \nframe=    3 fps=0.1 q=46.3 size=       0KiB time=00:00:00.01 bitrate=  21.1kbits/s speed=0.000699x elapsed=0:00:23.85    \nframe=    3 fps=0.1 q=46.3 size=       0KiB time=00:00:00.01 bitrate=  21.1kbits/s speed=0.000684x elapsed=0:00:24.37    \nframe=    3 fps=0.1 q=46.3 size=       0KiB time=00:00:00.01 bitrate=  21.1kbits/s speed=0.00067x elapsed=0:00:24.88    \nframe=    4 fps=0.2 q=46.7 size=       0KiB time=00:00:00.03 bitrate=  10.6kbits/s speed=0.00131x elapsed=0:00:25.40    \nframe=    4 fps=0.2 q=46.7 size=       0KiB time=00:00:00.03 bitrate=  10.6kbits/s speed=0.00129x elapsed=0:00:25.91    \nframe=    4 fps=0.2 q=46.7 size=       0KiB time=00:00:00.03 bitrate=  10.6kbits/s speed=0.00126x elapsed=0:00:26.43    \nframe=    4 fps=0.1 q=46.7 size=       0KiB time=00:00:00.03 bitrate=  10.6kbits/s speed=0.00124x elapsed=0:00:26.95    \nframe=    4 fps=0.1 q=46.7 size=       0KiB time=00:00:00.03 bitrate=  10.6kbits/s speed=0.00121x elapsed=0:00:27.47    \nframe=    4 fps=0.1 q=46.7 size=       0KiB time=00:00:00.03 bitrate=  10.6kbits/s speed=0.00119x elapsed=0:00:27.98    \nframe=    4 fps=0.1 q=46.7 size=       0KiB time=00:00:00.03 bitrate=  10.6kbits/s speed=0.00117x elapsed=0:00:28.49    \nframe=    4 fps=0.1 q=46.7 size=       0KiB time=00:00:00.03 bitrate=  10.6kbits/s speed=0.00115x elapsed=0:00:29.01    \nframe=    4 fps=0.1 q=46.7 size=       0KiB time=00:00:00.03 bitrate=  10.6kbits/s speed=0.00113x elapsed=0:00:29.53    \nframe=    4 fps=0.1 q=46.7 size=       0KiB time=00:00:00.03 bitrate=  10.6kbits/s speed=0.00111x elapsed=0:00:30.05    \nframe=    4 fps=0.1 q=46.7 size=       0KiB time=00:00:00.03 bitrate=  10.6kbits/s speed=0.00109x elapsed=0:00:30.57    \nframe=    4 fps=0.1 q=46.7 size=       0KiB time=00:00:00.03 bitrate=  10.6kbits/s speed=0.00107x elapsed=0:00:31.09    \nframe=    4 fps=0.1 q=46.7 size=       0KiB time=00:00:00.03 bitrate=  10.6kbits/s speed=0.00105x elapsed=0:00:31.60    \nframe=    4 fps=0.1 q=46.7 size=       0KiB time=00:00:00.03 bitrate=  10.6kbits/s speed=0.00104x elapsed=0:00:32.19    \nframe=    4 fps=0.1 q=46.7 size=       0KiB time=00:00:00.03 bitrate=  10.6kbits/s speed=0.00102x elapsed=0:00:32.74    \nframe=    4 fps=0.1 q=46.7 size=       0KiB time=00:00:00.03 bitrate=  10.6kbits/s speed=0.001x elapsed=0:00:33.24    \nframe=    4 fps=0.1 q=46.7 size=       0KiB time=00:00:00.03 bitrate=  10.6kbits/s speed=0.000987x elapsed=0:00:33.75    \nframe=    4 fps=0.1 q=46.7 size=       0KiB time=00:00:00.03 bitrate=  10.6kbits/s speed=0.000971x elapsed=0:00:34.31    \nframe=    5 fps=0.1 q=44.3 size=       0KiB time=00:00:00.05 bitrate=   7.0kbits/s speed=0.00143x elapsed=0:00:34.84    \nframe=    5 fps=0.1 q=44.3 size=       0KiB time=00:00:00.05 bitrate=   7.0kbits/s speed=0.00141x elapsed=0:00:35.47    \nframe=    5 fps=0.1 q=44.3 size=       0KiB time=00:00:00.05 bitrate=   7.0kbits/s speed=0.00139x elapsed=0:00:35.99    \nframe=    5 fps=0.1 q=44.3 size=       0KiB time=00:00:00.05 bitrate=   7.0kbits/s speed=0.00137x elapsed=0:00:36.52    \nframe=    5 fps=0.1 q=44.3 size=       0KiB time=00:00:00.05 bitrate=   7.0kbits/s speed=0.00135x elapsed=0:00:37.05    \nframe=    6 fps=0.2 q=40.3 size=       0KiB time=00:00:00.06 bitrate=   5.3kbits/s speed=0.00177x elapsed=0:00:37.59    \nframe=    7 fps=0.2 q=42.4 size=       0KiB time=00:00:00.08 bitrate=   4.2kbits/s speed=0.00219x elapsed=0:00:38.11    \nframe=    8 fps=0.2 q=41.9 size=       0KiB time=00:00:00.10 bitrate=   3.5kbits/s speed=0.00259x elapsed=0:00:38.62    \nframe=    8 fps=0.2 q=41.9 size=       0KiB time=00:00:00.10 bitrate=   3.5kbits/s speed=0.00255x elapsed=0:00:39.16    \nframe=    8 fps=0.2 q=41.9 size=       0KiB time=00:00:00.10 bitrate=   3.5kbits/s speed=0.00252x elapsed=0:00:39.71    \nframe=    8 fps=0.2 q=41.9 size=       0KiB time=00:00:00.10 bitrate=   3.5kbits/s speed=0.00249x elapsed=0:00:40.23    \nframe=    8 fps=0.2 q=41.9 size=       0KiB time=00:00:00.10 bitrate=   3.5kbits/s speed=0.00245x elapsed=0:00:40.74    \nframe=    8 fps=0.2 q=41.9 size=       0KiB time=00:00:00.10 bitrate=   3.5kbits/s speed=0.00242x elapsed=0:00:41.28    \nframe=    8 fps=0.2 q=41.9 size=       0KiB time=00:00:00.10 bitrate=   3.5kbits/s speed=0.00239x elapsed=0:00:41.80    \nframe=    8 fps=0.2 q=41.9 size=       0KiB time=00:00:00.10 bitrate=   3.5kbits/s speed=0.00236x elapsed=0:00:42.30    \nframe=    8 fps=0.2 q=41.9 size=       0KiB time=00:00:00.10 bitrate=   3.5kbits/s speed=0.00233x elapsed=0:00:42.83    \nframe=    8 fps=0.2 q=41.9 size=       0KiB time=00:00:00.10 bitrate=   3.5kbits/s speed=0.0023x elapsed=0:00:43.39    \nframe=    8 fps=0.2 q=41.9 size=       0KiB time=00:00:00.10 bitrate=   3.5kbits/s speed=0.00228x elapsed=0:00:43.90    \nframe=    8 fps=0.2 q=41.9 size=       0KiB time=00:00:00.10 bitrate=   3.5kbits/s speed=0.00225x elapsed=0:00:44.41    \nframe=    8 fps=0.2 q=41.9 size=       0KiB time=00:00:00.10 bitrate=   3.5kbits/s speed=0.00222x elapsed=0:00:44.99    \nframe=    8 fps=0.2 q=41.9 size=       0KiB time=00:00:00.10 bitrate=   3.5kbits/s speed=0.0022x elapsed=0:00:45.51    \nframe=    8 fps=0.2 q=41.9 size=       0KiB time=00:00:00.10 bitrate=   3.5kbits/s speed=0.00217x elapsed=0:00:46.03    \nframe=    8 fps=0.2 q=41.9 size=       0KiB time=00:00:00.10 bitrate=   3.5kbits/s speed=0.00215x elapsed=0:00:46.57    \nframe=    8 fps=0.2 q=41.9 size=       0KiB time=00:00:00.10 bitrate=   3.5kbits/s speed=0.00212x elapsed=0:00:47.09    \nframe=    9 fps=0.2 q=43.1 size=       0KiB time=00:00:00.11 bitrate=   3.0kbits/s speed=0.00245x elapsed=0:00:47.62    \nframe=    9 fps=0.2 q=43.1 size=       0KiB time=00:00:00.11 bitrate=   3.0kbits/s speed=0.00242x elapsed=0:00:48.14    \nframe=    9 fps=0.2 q=43.1 size=       0KiB time=00:00:00.11 bitrate=   3.0kbits/s speed=0.0024x elapsed=0:00:48.67    \nframe=    9 fps=0.2 q=43.1 size=       0KiB time=00:00:00.11 bitrate=   3.0kbits/s speed=0.00237x elapsed=0:00:49.21    \nframe=   10 fps=0.2 q=44.0 size=       0KiB time=00:00:00.13 bitrate=   2.6kbits/s speed=0.00268x elapsed=0:00:49.73    \nframe=   10 fps=0.2 q=44.0 size=       0KiB time=00:00:00.13 bitrate=   2.6kbits/s speed=0.00265x elapsed=0:00:50.24    \nframe=   10 fps=0.2 q=44.0 size=       0KiB time=00:00:00.13 bitrate=   2.6kbits/s speed=0.00263x elapsed=0:00:50.76    \nframe=   10 fps=0.2 q=44.0 size=       0KiB time=00:00:00.13 bitrate=   2.6kbits/s speed=0.0026x elapsed=0:00:51.28    \nframe=   10 fps=0.2 q=44.0 size=       0KiB time=00:00:00.13 bitrate=   2.6kbits/s speed=0.00257x elapsed=0:00:51.79    \nframe=   10 fps=0.2 q=44.0 size=       0KiB time=00:00:00.13 bitrate=   2.6kbits/s speed=0.00255x elapsed=0:00:52.31    \nframe=   10 fps=0.2 q=44.0 size=       0KiB time=00:00:00.13 bitrate=   2.6kbits/s speed=0.00252x elapsed=0:00:52.83    \nframe=   10 fps=0.2 q=44.0 size=       0KiB time=00:00:00.13 bitrate=   2.6kbits/s speed=0.0025x elapsed=0:00:53.35    \nframe=   10 fps=0.2 q=44.0 size=       0KiB time=00:00:00.13 bitrate=   2.6kbits/s speed=0.00247x elapsed=0:00:53.87    \nframe=   10 fps=0.2 q=44.0 size=       0KiB time=00:00:00.13 bitrate=   2.6kbits/s speed=0.00245x elapsed=0:00:54.38    \nframe=   11 fps=0.2 q=38.0 size=       0KiB time=00:00:00.15 bitrate=   2.3kbits/s speed=0.00273x elapsed=0:00:54.90    \nframe=   11 fps=0.2 q=38.0 size=       0KiB time=00:00:00.15 bitrate=   2.3kbits/s speed=0.00271x elapsed=0:00:55.44    \nframe=   12 fps=0.2 q=41.9 size=       0KiB time=00:00:00.16 bitrate=   2.1kbits/s speed=0.00298x elapsed=0:00:55.97    \nframe=   12 fps=0.2 q=41.9 size=       0KiB time=00:00:00.16 bitrate=   2.1kbits/s speed=0.00295x elapsed=0:00:56.50    \nframe=   13 fps=0.2 q=44.0 size=       0KiB time=00:00:00.18 bitrate=   1.9kbits/s speed=0.00321x elapsed=0:00:57.02    \nframe=   13 fps=0.2 q=44.0 size=       0KiB time=00:00:00.18 bitrate=   1.9kbits/s speed=0.00319x elapsed=0:00:57.54    \nframe=   14 fps=0.2 q=43.4 size=       0KiB time=00:00:00.20 bitrate=   1.8kbits/s speed=0.00344x elapsed=0:00:58.06    \nframe=   14 fps=0.2 q=43.4 size=       0KiB time=00:00:00.20 bitrate=   1.8kbits/s speed=0.00341x elapsed=0:00:58.59    \nframe=   14 fps=0.2 q=43.4 size=       0KiB time=00:00:00.20 bitrate=   1.8kbits/s speed=0.00338x elapsed=0:00:59.13    \nframe=   14 fps=0.2 q=43.4 size=       0KiB time=00:00:00.20 bitrate=   1.8kbits/s speed=0.00335x elapsed=0:00:59.65    \nframe=   14 fps=0.2 q=43.4 size=       0KiB time=00:00:00.20 bitrate=   1.8kbits/s speed=0.00332x elapsed=0:01:00.16    \nframe=   14 fps=0.2 q=43.4 size=       0KiB time=00:00:00.20 bitrate=   1.8kbits/s speed=0.0033x elapsed=0:01:00.68    \nframe=   15 fps=0.2 q=37.8 size=       0KiB time=00:00:00.21 bitrate=   1.6kbits/s speed=0.00354x elapsed=0:01:01.19    \nframe=   15 fps=0.2 q=37.8 size=       0KiB time=00:00:00.21 bitrate=   1.6kbits/s speed=0.00351x elapsed=0:01:01.75    \nframe=   15 fps=0.2 q=37.8 size=       0KiB time=00:00:00.21 bitrate=   1.6kbits/s speed=0.00348x elapsed=0:01:02.26    \nframe=   16 fps=0.3 q=39.2 size=       0KiB time=00:00:00.23 bitrate=   1.5kbits/s speed=0.00372x elapsed=0:01:02.80    \nframe=   16 fps=0.3 q=39.2 size=       0KiB time=00:00:00.23 bitrate=   1.5kbits/s speed=0.00369x elapsed=0:01:03.31    \nframe=   16 fps=0.3 q=39.2 size=       0KiB time=00:00:00.23 bitrate=   1.5kbits/s speed=0.00366x elapsed=0:01:03.83    \nframe=   16 fps=0.2 q=39.2 size=       0KiB time=00:00:00.23 bitrate=   1.5kbits/s speed=0.00362x elapsed=0:01:04.37    \nframe=   16 fps=0.2 q=39.2 size=       0KiB time=00:00:00.23 bitrate=   1.5kbits/s speed=0.00359x elapsed=0:01:04.91    \nframe=   16 fps=0.2 q=39.2 size=       0KiB time=00:00:00.23 bitrate=   1.5kbits/s speed=0.00357x elapsed=0:01:05.43    \nframe=   16 fps=0.2 q=39.2 size=       0KiB time=00:00:00.23 bitrate=   1.5kbits/s speed=0.00354x elapsed=0:01:05.95    \nframe=   16 fps=0.2 q=39.2 size=       0KiB time=00:00:00.23 bitrate=   1.5kbits/s speed=0.00351x elapsed=0:01:06.47    \nframe=   16 fps=0.2 q=39.2 size=       0KiB time=00:00:00.23 bitrate=   1.5kbits/s speed=0.00348x elapsed=0:01:07.00    \nframe=   16 fps=0.2 q=39.2 size=       0KiB time=00:00:00.23 bitrate=   1.5kbits/s speed=0.00346x elapsed=0:01:07.52    \nframe=   16 fps=0.2 q=39.2 size=       0KiB time=00:00:00.23 bitrate=   1.5kbits/s speed=0.00343x elapsed=0:01:08.06    \nframe=   16 fps=0.2 q=39.2 size=       0KiB time=00:00:00.23 bitrate=   1.5kbits/s speed=0.0034x elapsed=0:01:08.58    \nframe=   17 fps=0.2 q=42.7 size=       0KiB time=00:00:00.25 bitrate=   1.4kbits/s speed=0.00362x elapsed=0:01:09.11    \nframe=   18 fps=0.3 q=42.4 size=       0KiB time=00:00:00.26 bitrate=   1.3kbits/s speed=0.00383x elapsed=0:01:09.63    \nframe=   18 fps=0.3 q=42.4 size=       0KiB time=00:00:00.26 bitrate=   1.3kbits/s speed=0.0038x elapsed=0:01:10.15    \nframe=   18 fps=0.3 q=42.4 size=       0KiB time=00:00:00.26 bitrate=   1.3kbits/s speed=0.00377x elapsed=0:01:10.68    \nframe=   18 fps=0.3 q=42.4 size=       0KiB time=00:00:00.26 bitrate=   1.3kbits/s speed=0.00374x elapsed=0:01:11.23    \nframe=   19 fps=0.3 q=42.7 size=       0KiB time=00:00:00.28 bitrate=   1.2kbits/s speed=0.00395x elapsed=0:01:11.77    \nframe=   20 fps=0.3 q=37.9 size=       0KiB time=00:00:00.30 bitrate=   1.2kbits/s speed=0.00415x elapsed=0:01:12.30    \nframe=   20 fps=0.3 q=37.9 size=       0KiB time=00:00:00.30 bitrate=   1.2kbits/s speed=0.00412x elapsed=0:01:12.83    \nframe=   20 fps=0.3 q=37.9 size=       0KiB time=00:00:00.30 bitrate=   1.2kbits/s speed=0.00409x elapsed=0:01:13.34    \nframe=   21 fps=0.3 q=40.8 size=       0KiB time=00:00:00.31 bitrate=   1.1kbits/s speed=0.00429x elapsed=0:01:13.87    \nframe=   21 fps=0.3 q=40.8 size=       0KiB time=00:00:00.31 bitrate=   1.1kbits/s speed=0.00425x elapsed=0:01:14.43    \nframe=   21 fps=0.3 q=40.8 size=       0KiB time=00:00:00.31 bitrate=   1.1kbits/s speed=0.00423x elapsed=0:01:14.94    \nframe=   22 fps=0.3 q=42.6 size=       0KiB time=00:00:00.33 bitrate=   1.1kbits/s speed=0.00442x elapsed=0:01:15.49    \nframe=   22 fps=0.3 q=42.6 size=       0KiB time=00:00:00.33 bitrate=   1.1kbits/s speed=0.00438x elapsed=0:01:16.02    \nframe=   22 fps=0.3 q=42.6 size=       0KiB time=00:00:00.33 bitrate=   1.1kbits/s speed=0.00435x elapsed=0:01:16.62    \nframe=   23 fps=0.3 q=42.3 size=       0KiB time=00:00:00.33 bitrate=   1.1kbits/s speed=0.00432x elapsed=0:01:17.14    \nframe=   23 fps=0.3 q=42.3 size=       0KiB time=00:00:00.35 bitrate=   1.0kbits/s speed=0.00451x elapsed=0:01:17.66    \nframe=   23 fps=0.3 q=42.3 size=       0KiB time=00:00:00.35 bitrate=   1.0kbits/s speed=0.00448x elapsed=0:01:18.20    \nframe=   24 fps=0.3 q=37.4 size=       0KiB time=00:00:00.36 bitrate=   1.0kbits/s speed=0.00466x elapsed=0:01:18.72    \nframe=   24 fps=0.3 q=37.4 size=       0KiB time=00:00:00.36 bitrate=   1.0kbits/s speed=0.00463x elapsed=0:01:19.27    \nframe=   25 fps=0.3 q=39.8 size=       0KiB time=00:00:00.38 bitrate=   0.9kbits/s speed=0.0048x elapsed=0:01:19.79    \nframe=   26 fps=0.3 q=41.8 size=       0KiB time=00:00:00.40 bitrate=   0.9kbits/s speed=0.00498x elapsed=0:01:20.33    \nframe=   26 fps=0.3 q=41.8 size=       0KiB time=00:00:00.40 bitrate=   0.9kbits/s speed=0.00495x elapsed=0:01:20.84    \nframe=   26 fps=0.3 q=41.8 size=       0KiB time=00:00:00.40 bitrate=   0.9kbits/s speed=0.00492x elapsed=0:01:21.37    \nframe=   26 fps=0.3 q=41.8 size=       0KiB time=00:00:00.40 bitrate=   0.9kbits/s speed=0.00488x elapsed=0:01:21.92    \nframe=   26 fps=0.3 q=41.8 size=       0KiB time=00:00:00.40 bitrate=   0.9kbits/s speed=0.00485x elapsed=0:01:22.46    \nframe=   26 fps=0.3 q=41.8 size=       0KiB time=00:00:00.40 bitrate=   0.9kbits/s speed=0.00482x elapsed=0:01:22.99    \nframe=   27 fps=0.3 q=41.7 size=       0KiB time=00:00:00.41 bitrate=   0.8kbits/s speed=0.00499x elapsed=0:01:23.58    \nframe=   27 fps=0.3 q=41.7 size=       0KiB time=00:00:00.41 bitrate=   0.8kbits/s speed=0.00495x elapsed=0:01:24.14    \nframe=   27 fps=0.3 q=41.7 size=       0KiB time=00:00:00.41 bitrate=   0.8kbits/s speed=0.00492x elapsed=0:01:24.67    \nframe=   27 fps=0.3 q=41.7 size=       0KiB time=00:00:00.41 bitrate=   0.8kbits/s speed=0.00489x elapsed=0:01:25.18    \nframe=   28 fps=0.3 q=36.5 size=       0KiB time=00:00:00.43 bitrate=   0.8kbits/s speed=0.00506x elapsed=0:01:25.70    \nframe=   28 fps=0.3 q=36.5 size=       0KiB time=00:00:00.43 bitrate=   0.8kbits/s speed=0.00502x elapsed=0:01:26.30    \nframe=   29 fps=0.3 q=39.8 size=       0KiB time=00:00:00.45 bitrate=   0.8kbits/s speed=0.00518x elapsed=0:01:26.82    \nframe=   29 fps=0.3 q=39.8 size=       0KiB time=00:00:00.45 bitrate=   0.8kbits/s speed=0.00515x elapsed=0:01:27.33    \nframe=   29 fps=0.3 q=39.8 size=       0KiB time=00:00:00.45 bitrate=   0.8kbits/s speed=0.00512x elapsed=0:01:27.87    \nframe=   29 fps=0.3 q=39.8 size=       0KiB time=00:00:00.45 bitrate=   0.8kbits/s speed=0.00509x elapsed=0:01:28.41    \nframe=   29 fps=0.3 q=39.8 size=       0KiB time=00:00:00.45 bitrate=   0.8kbits/s speed=0.00506x elapsed=0:01:28.92    \nframe=   29 fps=0.3 q=39.8 size=       0KiB time=00:00:00.45 bitrate=   0.8kbits/s speed=0.00503x elapsed=0:01:29.43    \nframe=   29 fps=0.3 q=39.8 size=       0KiB time=00:00:00.45 bitrate=   0.8kbits/s speed=0.005x elapsed=0:01:29.95    \nframe=   30 fps=0.3 q=42.1 size=       0KiB time=00:00:00.46 bitrate=   0.8kbits/s speed=0.00516x elapsed=0:01:30.46    \nframe=   30 fps=0.3 q=42.1 size=       0KiB time=00:00:00.46 bitrate=   0.8kbits/s speed=0.00513x elapsed=0:01:31.04    \nframe=   30 fps=0.3 q=42.1 size=       0KiB time=00:00:00.46 bitrate=   0.8kbits/s speed=0.0051x elapsed=0:01:31.55    \nframe=   30 fps=0.3 q=42.1 size=       0KiB time=00:00:00.46 bitrate=   0.8kbits/s speed=0.00507x elapsed=0:01:32.07    \nframe=   30 fps=0.3 q=42.1 size=       0KiB time=00:00:00.46 bitrate=   0.8kbits/s speed=0.00504x elapsed=0:01:32.63    \nframe=   30 fps=0.3 q=42.1 size=       0KiB time=00:00:00.46 bitrate=   0.8kbits/s speed=0.00501x elapsed=0:01:33.15    \nframe=   30 fps=0.3 q=42.1 size=       0KiB time=00:00:00.46 bitrate=   0.8kbits/s speed=0.00498x elapsed=0:01:33.68    \nframe=   30 fps=0.3 q=42.1 size=       0KiB time=00:00:00.46 bitrate=   0.8kbits/s speed=0.00495x elapsed=0:01:34.20    \nframe=   30 fps=0.3 q=42.1 size=       0KiB time=00:00:00.46 bitrate=   0.8kbits/s speed=0.00493x elapsed=0:01:34.72    \nframe=   31 fps=0.3 q=42.1 size=       0KiB time=00:00:00.48 bitrate=   0.7kbits/s speed=0.00507x elapsed=0:01:35.27    \nframe=   31 fps=0.3 q=42.1 size=       0KiB time=00:00:00.48 bitrate=   0.7kbits/s speed=0.00504x elapsed=0:01:35.80    \nframe=   31 fps=0.3 q=42.1 size=       0KiB time=00:00:00.48 bitrate=   0.7kbits/s speed=0.00502x elapsed=0:01:36.33    \nframe=   31 fps=0.3 q=42.1 size=       0KiB time=00:00:00.48 bitrate=   0.7kbits/s speed=0.00499x elapsed=0:01:36.85    \nframe=   31 fps=0.3 q=42.1 size=       0KiB time=00:00:00.48 bitrate=   0.7kbits/s speed=0.00496x elapsed=0:01:37.41    \nframe=   31 fps=0.3 q=42.1 size=       0KiB time=00:00:00.48 bitrate=   0.7kbits/s speed=0.00494x elapsed=0:01:37.93    \nframe=   32 fps=0.3 q=37.4 size=       0KiB time=00:00:00.50 bitrate=   0.7kbits/s speed=0.00508x elapsed=0:01:38.45    \nframe=   32 fps=0.3 q=37.4 size=       0KiB time=00:00:00.50 bitrate=   0.7kbits/s speed=0.00505x elapsed=0:01:38.98    \nframe=   32 fps=0.3 q=37.4 size=       0KiB time=00:00:00.50 bitrate=   0.7kbits/s speed=0.00502x elapsed=0:01:39.51    \nframe=   32 fps=0.3 q=37.4 size=       0KiB time=00:00:00.50 bitrate=   0.7kbits/s speed=0.005x elapsed=0:01:40.04    \nframe=   32 fps=0.3 q=37.4 size=       0KiB time=00:00:00.50 bitrate=   0.7kbits/s speed=0.00497x elapsed=0:01:40.62    \nframe=   32 fps=0.3 q=37.4 size=       0KiB time=00:00:00.50 bitrate=   0.7kbits/s speed=0.00494x elapsed=0:01:41.15    \nframe=   32 fps=0.3 q=37.4 size=       0KiB time=00:00:00.50 bitrate=   0.7kbits/s speed=0.00492x elapsed=0:01:41.68    \nframe=   33 fps=0.3 q=40.2 size=       0KiB time=00:00:00.51 bitrate=   0.7kbits/s speed=0.00506x elapsed=0:01:42.19    \nframe=   34 fps=0.3 q=42.1 size=       0KiB time=00:00:00.53 bitrate=   0.7kbits/s speed=0.00519x elapsed=0:01:42.71    \nframe=   34 fps=0.3 q=42.1 size=       0KiB time=00:00:00.53 bitrate=   0.7kbits/s speed=0.00517x elapsed=0:01:43.23    \nframe=   34 fps=0.3 q=42.1 size=       0KiB time=00:00:00.53 bitrate=   0.7kbits/s speed=0.00514x elapsed=0:01:43.75    \nframe=   34 fps=0.3 q=42.1 size=       0KiB time=00:00:00.53 bitrate=   0.7kbits/s speed=0.00511x elapsed=0:01:44.27    \nframe=   34 fps=0.3 q=42.1 size=       0KiB time=00:00:00.53 bitrate=   0.7kbits/s speed=0.00509x elapsed=0:01:44.83    \nframe=   34 fps=0.3 q=42.1 size=       0KiB time=00:00:00.53 bitrate=   0.7kbits/s speed=0.00506x elapsed=0:01:45.35    \nframe=   34 fps=0.3 q=42.1 size=       0KiB time=00:00:00.53 bitrate=   0.7kbits/s speed=0.00504x elapsed=0:01:45.91    \nframe=   34 fps=0.3 q=42.1 size=       0KiB time=00:00:00.53 bitrate=   0.7kbits/s speed=0.00501x elapsed=0:01:46.43    \nframe=   34 fps=0.3 q=42.1 size=       0KiB time=00:00:00.53 bitrate=   0.7kbits/s speed=0.00499x elapsed=0:01:46.97    \nframe=   34 fps=0.3 q=42.1 size=       0KiB time=00:00:00.53 bitrate=   0.7kbits/s speed=0.00496x elapsed=0:01:47.53    \nframe=   36 fps=0.3 q=37.1 size=       0KiB time=00:00:00.56 bitrate=   0.6kbits/s speed=0.00524x elapsed=0:01:48.05    \nframe=   37 fps=0.3 q=40.4 size=       0KiB time=00:00:00.58 bitrate=   0.6kbits/s speed=0.00537x elapsed=0:01:48.62    \nframe=   37 fps=0.3 q=40.4 size=       0KiB time=00:00:00.58 bitrate=   0.6kbits/s speed=0.00534x elapsed=0:01:49.14    \nframe=   37 fps=0.3 q=40.4 size=       0KiB time=00:00:00.58 bitrate=   0.6kbits/s speed=0.00532x elapsed=0:01:49.67    \nframe=   37 fps=0.3 q=40.4 size=       0KiB time=00:00:00.58 bitrate=   0.6kbits/s speed=0.00529x elapsed=0:01:50.20    \nframe=   37 fps=0.3 q=40.4 size=       0KiB time=00:00:00.58 bitrate=   0.6kbits/s speed=0.00527x elapsed=0:01:50.73    \nframe=   37 fps=0.3 q=40.4 size=       0KiB time=00:00:00.58 bitrate=   0.6kbits/s speed=0.00524x elapsed=0:01:51.24    \nframe=   37 fps=0.3 q=40.4 size=       0KiB time=00:00:00.58 bitrate=   0.6kbits/s speed=0.00522x elapsed=0:01:51.79    \nframe=   37 fps=0.3 q=40.4 size=       0KiB time=00:00:00.58 bitrate=   0.6kbits/s speed=0.00519x elapsed=0:01:52.36    \nframe=   37 fps=0.3 q=40.4 size=       0KiB time=00:00:00.58 bitrate=   0.6kbits/s speed=0.00517x elapsed=0:01:52.88    \nframe=   38 fps=0.3 q=42.2 size=       0KiB time=00:00:00.60 bitrate=   0.6kbits/s speed=0.00529x elapsed=0:01:53.42    \nframe=   38 fps=0.3 q=42.2 size=       0KiB time=00:00:00.60 bitrate=   0.6kbits/s speed=0.00526x elapsed=0:01:53.96    \nframe=   38 fps=0.3 q=42.2 size=       0KiB time=00:00:00.60 bitrate=   0.6kbits/s speed=0.00524x elapsed=0:01:54.48    \nframe=   38 fps=0.3 q=42.2 size=       0KiB time=00:00:00.60 bitrate=   0.6kbits/s speed=0.00522x elapsed=0:01:54.99    \nframe=   38 fps=0.3 q=42.2 size=       0KiB time=00:00:00.60 bitrate=   0.6kbits/s speed=0.00519x elapsed=0:01:55.53    \nframe=   38 fps=0.3 q=42.2 size=       0KiB time=00:00:00.60 bitrate=   0.6kbits/s speed=0.00517x elapsed=0:01:56.06    \nframe=   39 fps=0.3 q=42.3 size=       0KiB time=00:00:00.61 bitrate=   0.6kbits/s speed=0.00529x elapsed=0:01:56.62    \nframe=   40 fps=0.3 q=36.6 size=       0KiB time=00:00:00.63 bitrate=   0.6kbits/s speed=0.00541x elapsed=0:01:57.14    \nframe=   41 fps=0.3 q=39.9 size=       0KiB time=00:00:00.65 bitrate=   0.5kbits/s speed=0.00552x elapsed=0:01:57.65    \nframe=   42 fps=0.4 q=42.1 size=       0KiB time=00:00:00.66 bitrate=   0.5kbits/s speed=0.00564x elapsed=0:01:58.16    \nframe=   42 fps=0.4 q=42.1 size=       0KiB time=00:00:00.66 bitrate=   0.5kbits/s speed=0.00562x elapsed=0:01:58.68    \nframe=   43 fps=0.4 q=42.0 size=       0KiB time=00:00:00.68 bitrate=   0.5kbits/s speed=0.00573x elapsed=0:01:59.21    \nframe=   43 fps=0.4 q=42.0 size=       0KiB time=00:00:00.68 bitrate=   0.5kbits/s speed=0.00571x elapsed=0:01:59.72    \nframe=   44 fps=0.4 q=37.0 size=       0KiB time=00:00:00.70 bitrate=   0.5kbits/s speed=0.00582x elapsed=0:02:00.27    \nframe=   45 fps=0.4 q=40.8 size=       0KiB time=00:00:00.71 bitrate=   0.5kbits/s speed=0.00593x elapsed=0:02:00.80    \nframe=   45 fps=0.4 q=40.8 size=       0KiB time=00:00:00.71 bitrate=   0.5kbits/s speed=0.00591x elapsed=0:02:01.32    \nframe=   45 fps=0.4 q=40.8 size=       0KiB time=00:00:00.71 bitrate=   0.5kbits/s speed=0.00588x elapsed=0:02:01.84    \nframe=   46 fps=0.4 q=42.0 size=       0KiB time=00:00:00.73 bitrate=   0.5kbits/s speed=0.00599x elapsed=0:02:02.37    \nframe=   46 fps=0.4 q=42.0 size=       0KiB time=00:00:00.73 bitrate=   0.5kbits/s speed=0.00597x elapsed=0:02:02.93    \nframe=   46 fps=0.4 q=42.0 size=       0KiB time=00:00:00.73 bitrate=   0.5kbits/s speed=0.00594x elapsed=0:02:03.46    \nframe=   46 fps=0.4 q=42.0 size=       0KiB time=00:00:00.73 bitrate=   0.5kbits/s speed=0.00591x elapsed=0:02:03.97    \nframe=   46 fps=0.4 q=42.0 size=       0KiB time=00:00:00.73 bitrate=   0.5kbits/s speed=0.00589x elapsed=0:02:04.50    \nframe=   47 fps=0.4 q=41.3 size=       0KiB time=00:00:00.75 bitrate=   0.5kbits/s speed=0.006x elapsed=0:02:05.01    \nframe=   47 fps=0.4 q=41.3 size=       0KiB time=00:00:00.75 bitrate=   0.5kbits/s speed=0.00597x elapsed=0:02:05.53    \nframe=   47 fps=0.4 q=41.3 size=       0KiB time=00:00:00.75 bitrate=   0.5kbits/s speed=0.00595x elapsed=0:02:06.04    \nframe=   47 fps=0.4 q=41.3 size=       0KiB time=00:00:00.75 bitrate=   0.5kbits/s speed=0.00593x elapsed=0:02:06.55    \nframe=   48 fps=0.4 q=41.5 size=       0KiB time=00:00:00.76 bitrate=   0.5kbits/s speed=0.00603x elapsed=0:02:07.08    \nframe=   48 fps=0.4 q=41.5 size=       0KiB time=00:00:00.76 bitrate=   0.5kbits/s speed=0.00601x elapsed=0:02:07.60    \nframe=   48 fps=0.4 q=41.5 size=       0KiB time=00:00:00.76 bitrate=   0.5kbits/s speed=0.00598x elapsed=0:02:08.11    \nframe=   49 fps=0.4 q=36.9 size=       0KiB time=00:00:00.78 bitrate=   0.4kbits/s speed=0.00609x elapsed=0:02:08.64    \nframe=   49 fps=0.4 q=36.9 size=       0KiB time=00:00:00.78 bitrate=   0.4kbits/s speed=0.00606x elapsed=0:02:09.16    \nframe=   50 fps=0.4 q=40.3 size=       0KiB time=00:00:00.80 bitrate=   0.4kbits/s speed=0.00617x elapsed=0:02:09.69    \nframe=   50 fps=0.4 q=40.3 size=       0KiB time=00:00:00.80 bitrate=   0.4kbits/s speed=0.00614x elapsed=0:02:10.26    \nframe=   50 fps=0.4 q=40.3 size=       0KiB time=00:00:00.80 bitrate=   0.4kbits/s speed=0.00612x elapsed=0:02:10.77    \nframe=   50 fps=0.4 q=40.3 size=       0KiB time=00:00:00.80 bitrate=   0.4kbits/s speed=0.00609x elapsed=0:02:11.30    \nframe=   50 fps=0.4 q=40.3 size=       0KiB time=00:00:00.80 bitrate=   0.4kbits/s speed=0.00607x elapsed=0:02:11.83    \nframe=   50 fps=0.4 q=40.3 size=       0KiB time=00:00:00.80 bitrate=   0.4kbits/s speed=0.00604x elapsed=0:02:12.35    \nframe=   50 fps=0.4 q=40.3 size=       0KiB time=00:00:00.80 bitrate=   0.4kbits/s speed=0.00602x elapsed=0:02:12.87    \nframe=   50 fps=0.4 q=40.3 size=       0KiB time=00:00:00.80 bitrate=   0.4kbits/s speed=0.006x elapsed=0:02:13.39    \nframe=   51 fps=0.4 q=42.2 size=       0KiB time=00:00:00.81 bitrate=   0.4kbits/s speed=0.0061x elapsed=0:02:13.95    \nframe=   52 fps=0.4 q=42.4 size=       0KiB time=00:00:00.83 bitrate=   0.4kbits/s speed=0.0062x elapsed=0:02:14.49    \nframe=   54 fps=0.4 q=40.1 size=       0KiB time=00:00:00.86 bitrate=   0.4kbits/s speed=0.00642x elapsed=0:02:15.03    \nframe=   54 fps=0.4 q=40.1 size=       0KiB time=00:00:00.86 bitrate=   0.4kbits/s speed=0.00639x elapsed=0:02:15.55    \nframe=   54 fps=0.4 q=40.1 size=       0KiB time=00:00:00.86 bitrate=   0.4kbits/s speed=0.00637x elapsed=0:02:16.07    \nframe=   54 fps=0.4 q=40.1 size=       0KiB time=00:00:00.86 bitrate=   0.4kbits/s speed=0.00634x elapsed=0:02:16.61    \nframe=   54 fps=0.4 q=40.1 size=       0KiB time=00:00:00.86 bitrate=   0.4kbits/s speed=0.00632x elapsed=0:02:17.14    \nframe=   54 fps=0.4 q=40.1 size=       0KiB time=00:00:00.86 bitrate=   0.4kbits/s speed=0.0063x elapsed=0:02:17.67    \nframe=   54 fps=0.4 q=40.1 size=       0KiB time=00:00:00.86 bitrate=   0.4kbits/s speed=0.00627x elapsed=0:02:18.19    \nframe=   54 fps=0.4 q=40.1 size=       0KiB time=00:00:00.86 bitrate=   0.4kbits/s speed=0.00625x elapsed=0:02:18.73    \nframe=   55 fps=0.4 q=42.4 size=       0KiB time=00:00:00.88 bitrate=   0.4kbits/s speed=0.00634x elapsed=0:02:19.25    \nframe=   55 fps=0.4 q=42.4 size=       0KiB time=00:00:00.88 bitrate=   0.4kbits/s speed=0.00632x elapsed=0:02:19.76    \nframe=   55 fps=0.4 q=42.4 size=       0KiB time=00:00:00.88 bitrate=   0.4kbits/s speed=0.0063x elapsed=0:02:20.29    \nframe=   55 fps=0.4 q=42.4 size=       0KiB time=00:00:00.88 bitrate=   0.4kbits/s speed=0.00627x elapsed=0:02:20.81    \nframe=   55 fps=0.4 q=42.4 size=       0KiB time=00:00:00.88 bitrate=   0.4kbits/s speed=0.00625x elapsed=0:02:21.36    \nframe=   55 fps=0.4 q=42.4 size=       0KiB time=00:00:00.88 bitrate=   0.4kbits/s speed=0.00622x elapsed=0:02:21.90    \nframe=   55 fps=0.4 q=42.4 size=       0KiB time=00:00:00.88 bitrate=   0.4kbits/s speed=0.0062x elapsed=0:02:22.41    \nframe=   56 fps=0.4 q=41.6 size=       0KiB time=00:00:00.90 bitrate=   0.4kbits/s speed=0.0063x elapsed=0:02:22.96    \nframe=   56 fps=0.4 q=41.6 size=       0KiB time=00:00:00.90 bitrate=   0.4kbits/s speed=0.00627x elapsed=0:02:23.47    \nframe=   56 fps=0.4 q=41.6 size=       0KiB time=00:00:00.90 bitrate=   0.4kbits/s speed=0.00625x elapsed=0:02:24.00    \nframe=   57 fps=0.4 q=37.5 size=       0KiB time=00:00:00.91 bitrate=   0.4kbits/s speed=0.00634x elapsed=0:02:24.52    \nframe=   57 fps=0.4 q=37.5 size=       0KiB time=00:00:00.91 bitrate=   0.4kbits/s speed=0.00632x elapsed=0:02:25.06    \nframe=   58 fps=0.4 q=40.3 size=       0KiB time=00:00:00.93 bitrate=   0.4kbits/s speed=0.00641x elapsed=0:02:25.58    \nframe=   58 fps=0.4 q=40.3 size=       0KiB time=00:00:00.93 bitrate=   0.4kbits/s speed=0.00639x elapsed=0:02:26.09    \nframe=   58 fps=0.4 q=40.3 size=       0KiB time=00:00:00.93 bitrate=   0.4kbits/s speed=0.00637x elapsed=0:02:26.61    \nframe=   58 fps=0.4 q=40.3 size=       0KiB time=00:00:00.93 bitrate=   0.4kbits/s speed=0.00634x elapsed=0:02:27.13    \nframe=   58 fps=0.4 q=40.3 size=       0KiB time=00:00:00.93 bitrate=   0.4kbits/s speed=0.00632x elapsed=0:02:27.66    \nframe=   58 fps=0.4 q=40.3 size=       0KiB time=00:00:00.93 bitrate=   0.4kbits/s speed=0.0063x elapsed=0:02:28.18    \nframe=   58 fps=0.4 q=40.3 size=       0KiB time=00:00:00.93 bitrate=   0.4kbits/s speed=0.00628x elapsed=0:02:28.69    \nframe=   58 fps=0.4 q=40.3 size=       0KiB time=00:00:00.93 bitrate=   0.4kbits/s speed=0.00625x elapsed=0:02:29.22    \nframe=   59 fps=0.4 q=42.1 size=       0KiB time=00:00:00.95 bitrate=   0.4kbits/s speed=0.00634x elapsed=0:02:29.74    \nframe=   60 fps=0.4 q=37.0 size=       0KiB time=00:00:00.96 bitrate=   0.4kbits/s speed=0.00643x elapsed=0:02:30.26    \nframe=   60 fps=0.4 q=37.0 size=       0KiB time=00:00:00.96 bitrate=   0.4kbits/s speed=0.00641x elapsed=0:02:30.77    \nframe=   61 fps=0.4 q=40.8 size=       0KiB time=00:00:00.98 bitrate=   0.4kbits/s speed=0.0065x elapsed=0:02:31.29    \nframe=   61 fps=0.4 q=40.8 size=       0KiB time=00:00:00.98 bitrate=   0.4kbits/s speed=0.00648x elapsed=0:02:31.81    \nframe=   62 fps=0.4 q=42.3 size=       0KiB time=00:00:01.00 bitrate=   0.4kbits/s speed=0.00656x elapsed=0:02:32.33    \nframe=   62 fps=0.4 q=42.3 size=       0KiB time=00:00:01.00 bitrate=   0.4kbits/s speed=0.00654x elapsed=0:02:32.84    \nframe=   63 fps=0.4 q=42.1 size=       0KiB time=00:00:01.01 bitrate=   0.3kbits/s speed=0.00663x elapsed=0:02:33.36    \nframe=   63 fps=0.4 q=42.1 size=       0KiB time=00:00:01.01 bitrate=   0.3kbits/s speed=0.00661x elapsed=0:02:33.86    \nframe=   63 fps=0.4 q=42.1 size=       0KiB time=00:00:01.01 bitrate=   0.3kbits/s speed=0.00658x elapsed=0:02:34.39    \nframe=   63 fps=0.4 q=42.1 size=       0KiB time=00:00:01.01 bitrate=   0.3kbits/s speed=0.00656x elapsed=0:02:34.90    \nframe=   64 fps=0.4 q=42.2 size=       0KiB time=00:00:01.03 bitrate=   0.3kbits/s speed=0.00665x elapsed=0:02:35.45    \nframe=   64 fps=0.4 q=42.2 size=       0KiB time=00:00:01.03 bitrate=   0.3kbits/s speed=0.00663x elapsed=0:02:35.96    \nframe=   64 fps=0.4 q=42.2 size=       0KiB time=00:00:01.03 bitrate=   0.3kbits/s speed=0.0066x elapsed=0:02:36.48    \nframe=   64 fps=0.4 q=42.2 size=       0KiB time=00:00:01.03 bitrate=   0.3kbits/s speed=0.00658x elapsed=0:02:37.01    \nframe=   65 fps=0.4 q=37.9 size=       0KiB time=00:00:01.05 bitrate=   0.3kbits/s speed=0.00667x elapsed=0:02:37.53    \nframe=   65 fps=0.4 q=37.9 size=       0KiB time=00:00:01.05 bitrate=   0.3kbits/s speed=0.00664x elapsed=0:02:38.07    \nframe=   65 fps=0.4 q=37.9 size=       0KiB time=00:00:01.05 bitrate=   0.3kbits/s speed=0.00662x elapsed=0:02:38.61    \nframe=   66 fps=0.4 q=40.8 size=       0KiB time=00:00:01.06 bitrate=   0.3kbits/s speed=0.0067x elapsed=0:02:39.13    \nframe=   67 fps=0.4 q=41.9 size=       0KiB time=00:00:01.08 bitrate=   0.3kbits/s speed=0.00678x elapsed=0:02:39.67    \nframe=   68 fps=0.4 q=41.9 size=       0KiB time=00:00:01.10 bitrate=   0.3kbits/s speed=0.00687x elapsed=0:02:40.19    \nframe=   69 fps=0.4 q=42.2 size=       0KiB time=00:00:01.11 bitrate=   0.3kbits/s speed=0.00695x elapsed=0:02:40.72    \nframe=   69 fps=0.4 q=42.2 size=       0KiB time=00:00:01.11 bitrate=   0.3kbits/s speed=0.00692x elapsed=0:02:41.28    \nframe=   69 fps=0.4 q=42.2 size=       0KiB time=00:00:01.11 bitrate=   0.3kbits/s speed=0.0069x elapsed=0:02:41.79    \nframe=   69 fps=0.4 q=42.2 size=       0KiB time=00:00:01.11 bitrate=   0.3kbits/s speed=0.00688x elapsed=0:02:42.33    \nframe=   70 fps=0.4 q=37.7 size=       0KiB time=00:00:01.13 bitrate=   0.3kbits/s speed=0.00696x elapsed=0:02:42.87    \nframe=   71 fps=0.4 q=42.2 size=       0KiB time=00:00:01.15 bitrate=   0.3kbits/s speed=0.00704x elapsed=0:02:43.39    \nframe=   73 fps=0.4 q=40.6 size=       0KiB time=00:00:01.18 bitrate=   0.3kbits/s speed=0.00722x elapsed=0:02:43.90    \nframe=   73 fps=0.4 q=40.6 size=       0KiB time=00:00:01.18 bitrate=   0.3kbits/s speed=0.0072x elapsed=0:02:44.42    \nframe=   73 fps=0.4 q=40.6 size=       0KiB time=00:00:01.18 bitrate=   0.3kbits/s speed=0.00717x elapsed=0:02:44.95    \nframe=   73 fps=0.4 q=40.6 size=       0KiB time=00:00:01.18 bitrate=   0.3kbits/s speed=0.00715x elapsed=0:02:45.48    \nframe=   73 fps=0.4 q=40.6 size=       0KiB time=00:00:01.18 bitrate=   0.3kbits/s speed=0.00713x elapsed=0:02:45.99    \nframe=   74 fps=0.4 q=42.2 size=       0KiB time=00:00:01.20 bitrate=   0.3kbits/s speed=0.00721x elapsed=0:02:46.52    \nframe=   74 fps=0.4 q=42.2 size=       0KiB time=00:00:01.20 bitrate=   0.3kbits/s speed=0.00718x elapsed=0:02:47.07    \nframe=   74 fps=0.4 q=42.2 size=       0KiB time=00:00:01.20 bitrate=   0.3kbits/s speed=0.00716x elapsed=0:02:47.59    \nframe=   74 fps=0.4 q=42.2 size=       0KiB time=00:00:01.20 bitrate=   0.3kbits/s speed=0.00714x elapsed=0:02:48.11    \nframe=   74 fps=0.4 q=42.2 size=       0KiB time=00:00:01.20 bitrate=   0.3kbits/s speed=0.00712x elapsed=0:02:48.63    \nframe=   74 fps=0.4 q=42.2 size=       0KiB time=00:00:01.20 bitrate=   0.3kbits/s speed=0.00709x elapsed=0:02:49.14    \nframe=   74 fps=0.4 q=42.2 size=       0KiB time=00:00:01.20 bitrate=   0.3kbits/s speed=0.00707x elapsed=0:02:49.68    \nframe=   74 fps=0.4 q=42.2 size=       0KiB time=00:00:01.20 bitrate=   0.3kbits/s speed=0.00705x elapsed=0:02:50.20    \nframe=   75 fps=0.4 q=42.1 size=       0KiB time=00:00:01.21 bitrate=   0.3kbits/s speed=0.00713x elapsed=0:02:50.71    \nframe=   76 fps=0.4 q=37.9 size=       0KiB time=00:00:01.23 bitrate=   0.3kbits/s speed=0.0072x elapsed=0:02:51.24    \nframe=   76 fps=0.4 q=37.9 size=       0KiB time=00:00:01.23 bitrate=   0.3kbits/s speed=0.00718x elapsed=0:02:51.75    \nframe=   76 fps=0.4 q=37.9 size=       0KiB time=00:00:01.23 bitrate=   0.3kbits/s speed=0.00716x elapsed=0:02:52.26    \nframe=   76 fps=0.4 q=37.9 size=       0KiB time=00:00:01.23 bitrate=   0.3kbits/s speed=0.00714x elapsed=0:02:52.81    \nframe=   77 fps=0.4 q=40.3 size=       0KiB time=00:00:01.25 bitrate=   0.3kbits/s speed=0.00721x elapsed=0:02:53.34    \nframe=   77 fps=0.4 q=40.3 size=       0KiB time=00:00:01.25 bitrate=   0.3kbits/s speed=0.00719x elapsed=0:02:53.85    \nframe=   77 fps=0.4 q=40.3 size=       0KiB time=00:00:01.25 bitrate=   0.3kbits/s speed=0.00717x elapsed=0:02:54.38    \nframe=   77 fps=0.4 q=40.3 size=       0KiB time=00:00:01.25 bitrate=   0.3kbits/s speed=0.00715x elapsed=0:02:54.90    \nframe=   78 fps=0.4 q=42.2 size=       0KiB time=00:00:01.26 bitrate=   0.3kbits/s speed=0.00722x elapsed=0:02:55.41    \nframe=   78 fps=0.4 q=42.2 size=       0KiB time=00:00:01.26 bitrate=   0.3kbits/s speed=0.0072x elapsed=0:02:55.93    \nframe=   79 fps=0.4 q=42.3 size=       0KiB time=00:00:01.26 bitrate=   0.3kbits/s speed=0.00717x elapsed=0:02:56.57    \nframe=   79 fps=0.4 q=42.3 size=       0KiB time=00:00:01.28 bitrate=   0.3kbits/s speed=0.00725x elapsed=0:02:57.11    \nframe=   81 fps=0.5 q=41.2 size=       0KiB time=00:00:01.31 bitrate=   0.3kbits/s speed=0.00741x elapsed=0:02:57.78    \nframe=   82 fps=0.5 q=42.5 size=       0KiB time=00:00:01.33 bitrate=   0.3kbits/s speed=0.00747x elapsed=0:02:58.37    \nframe=   82 fps=0.5 q=42.5 size=       0KiB time=00:00:01.33 bitrate=   0.3kbits/s speed=0.00745x elapsed=0:02:58.98    \nframe=   83 fps=0.5 q=42.4 size=       0KiB time=00:00:01.35 bitrate=   0.3kbits/s speed=0.00752x elapsed=0:02:59.53    \nframe=   84 fps=0.5 q=42.7 size=       0KiB time=00:00:01.36 bitrate=   0.3kbits/s speed=0.00759x elapsed=0:03:00.06    \nframe=   84 fps=0.5 q=42.7 size=       0KiB time=00:00:01.36 bitrate=   0.3kbits/s speed=0.00757x elapsed=0:03:00.61    \nframe=   85 fps=0.5 q=37.5 size=       0KiB time=00:00:01.38 bitrate=   0.3kbits/s speed=0.00763x elapsed=0:03:01.21    \nframe=   86 fps=0.5 q=40.5 size=     256KiB time=00:00:01.40 bitrate=1498.2kbits/s speed=0.0077x elapsed=0:03:01.86    \nframe=   86 fps=0.5 q=40.5 size=     256KiB time=00:00:01.40 bitrate=1498.2kbits/s speed=0.00767x elapsed=0:03:02.54    \nframe=   86 fps=0.5 q=40.5 size=     256KiB time=00:00:01.40 bitrate=1498.2kbits/s speed=0.00764x elapsed=0:03:03.14    \nframe=   86 fps=0.5 q=40.5 size=     256KiB time=00:00:01.40 bitrate=1498.2kbits/s speed=0.00762x elapsed=0:03:03.75    \nframe=   86 fps=0.5 q=40.5 size=     256KiB time=00:00:01.40 bitrate=1498.2kbits/s speed=0.00759x elapsed=0:03:04.41    \nframe=   86 fps=0.5 q=40.5 size=     256KiB time=00:00:01.40 bitrate=1498.2kbits/s speed=0.00756x elapsed=0:03:05.07    \nframe=   86 fps=0.5 q=40.5 size=     256KiB time=00:00:01.40 bitrate=1498.2kbits/s speed=0.00754x elapsed=0:03:05.64    \nframe=   86 fps=0.5 q=40.5 size=     256KiB time=00:00:01.40 bitrate=1498.2kbits/s speed=0.00752x elapsed=0:03:06.28    \nframe=   86 fps=0.5 q=40.5 size=     256KiB time=00:00:01.40 bitrate=1498.2kbits/s speed=0.00749x elapsed=0:03:06.91    \nframe=   86 fps=0.5 q=40.5 size=     256KiB time=00:00:01.40 bitrate=1498.2kbits/s speed=0.00747x elapsed=0:03:07.52    \nframe=   87 fps=0.5 q=43.3 size=     256KiB time=00:00:01.41 bitrate=1480.6kbits/s speed=0.00753x elapsed=0:03:08.21    \nframe=   87 fps=0.5 q=43.3 size=     256KiB time=00:00:01.41 bitrate=1480.6kbits/s speed=0.0075x elapsed=0:03:08.83    \nframe=   87 fps=0.5 q=43.3 size=     256KiB time=00:00:01.41 bitrate=1480.6kbits/s speed=0.00748x elapsed=0:03:09.45    \nframe=   88 fps=0.5 q=43.4 size=     256KiB time=00:00:01.43 bitrate=1463.4kbits/s speed=0.00754x elapsed=0:03:09.97    \nframe=   88 fps=0.5 q=43.4 size=     256KiB time=00:00:01.43 bitrate=1463.4kbits/s speed=0.00752x elapsed=0:03:10.52    \nframe=   89 fps=0.5 q=38.3 size=     256KiB time=00:00:01.45 bitrate=1446.6kbits/s speed=0.00759x elapsed=0:03:11.15    \nframe=   90 fps=0.5 q=41.4 size=     256KiB time=00:00:01.45 bitrate=1446.6kbits/s speed=0.00756x elapsed=0:03:11.69    \nframe=   90 fps=0.5 q=41.4 size=     256KiB time=00:00:01.46 bitrate=1430.1kbits/s speed=0.00763x elapsed=0:03:12.27    \nframe=   91 fps=0.5 q=43.2 size=     256KiB time=00:00:01.48 bitrate=1414.0kbits/s speed=0.00769x elapsed=0:03:12.87    \nframe=   91 fps=0.5 q=43.2 size=     256KiB time=00:00:01.48 bitrate=1414.0kbits/s speed=0.00767x elapsed=0:03:13.43    \nframe=   91 fps=0.5 q=43.2 size=     256KiB time=00:00:01.48 bitrate=1414.0kbits/s speed=0.00765x elapsed=0:03:13.95    \nframe=   93 fps=0.5 q=38.2 size=     256KiB time=00:00:01.51 bitrate=1383.0kbits/s speed=0.0078x elapsed=0:03:14.50    \nframe=   93 fps=0.5 q=38.2 size=     256KiB time=00:00:01.51 bitrate=1383.0kbits/s speed=0.00777x elapsed=0:03:15.07    \nframe=   93 fps=0.5 q=38.2 size=     256KiB time=00:00:01.51 bitrate=1383.0kbits/s speed=0.00775x elapsed=0:03:15.61    \nframe=   93 fps=0.5 q=38.2 size=     256KiB time=00:00:01.51 bitrate=1383.0kbits/s speed=0.00773x elapsed=0:03:16.14    \nframe=   93 fps=0.5 q=38.2 size=     256KiB time=00:00:01.51 bitrate=1383.0kbits/s speed=0.00771x elapsed=0:03:16.70    \nframe=   93 fps=0.5 q=38.2 size=     256KiB time=00:00:01.51 bitrate=1383.0kbits/s speed=0.00769x elapsed=0:03:17.31    \nframe=   93 fps=0.5 q=38.2 size=     256KiB time=00:00:01.51 bitrate=1383.0kbits/s speed=0.00766x elapsed=0:03:17.91    \nframe=   94 fps=0.5 q=41.6 size=     256KiB time=00:00:01.53 bitrate=1367.9kbits/s speed=0.00773x elapsed=0:03:18.42    \nframe=   94 fps=0.5 q=41.6 size=     256KiB time=00:00:01.53 bitrate=1367.9kbits/s speed=0.0077x elapsed=0:03:19.04    \nframe=   94 fps=0.5 q=41.6 size=     256KiB time=00:00:01.53 bitrate=1367.9kbits/s speed=0.00768x elapsed=0:03:19.62    \nframe=   95 fps=0.5 q=43.5 size=     256KiB time=00:00:01.55 bitrate=1353.2kbits/s speed=0.00774x elapsed=0:03:20.20    \nframe=   96 fps=0.5 q=38.7 size=     256KiB time=00:00:01.56 bitrate=1338.8kbits/s speed=0.0078x elapsed=0:03:20.82    \nframe=   96 fps=0.5 q=38.7 size=     256KiB time=00:00:01.56 bitrate=1338.8kbits/s speed=0.00778x elapsed=0:03:21.37    \nframe=   97 fps=0.5 q=42.2 size=     256KiB time=00:00:01.58 bitrate=1324.7kbits/s speed=0.00784x elapsed=0:03:21.91    \nframe=   97 fps=0.5 q=42.2 size=     256KiB time=00:00:01.58 bitrate=1324.7kbits/s speed=0.00782x elapsed=0:03:22.47    \nframe=   98 fps=0.5 q=43.6 size=     256KiB time=00:00:01.58 bitrate=1324.7kbits/s speed=0.0078x elapsed=0:03:23.03    \nframe=   99 fps=0.5 q=43.3 size=     256KiB time=00:00:01.61 bitrate=1297.4kbits/s speed=0.00794x elapsed=0:03:23.65    \nframe=   99 fps=0.5 q=43.3 size=     256KiB time=00:00:01.61 bitrate=1297.4kbits/s speed=0.00792x elapsed=0:03:24.24    \nframe=  100 fps=0.5 q=43.6 size=     256KiB time=00:00:01.63 bitrate=1284.2kbits/s speed=0.00797x elapsed=0:03:24.81    \nframe=  100 fps=0.5 q=43.6 size=     256KiB time=00:00:01.63 bitrate=1284.2kbits/s speed=0.00795x elapsed=0:03:25.38    \nframe=  101 fps=0.5 q=38.6 size=     256KiB time=00:00:01.65 bitrate=1271.2kbits/s speed=0.00801x elapsed=0:03:25.92    \nframe=  102 fps=0.5 q=41.5 size=     256KiB time=00:00:01.66 bitrate=1258.5kbits/s speed=0.00807x elapsed=0:03:26.47    \nframe=  102 fps=0.5 q=41.5 size=     256KiB time=00:00:01.66 bitrate=1258.5kbits/s speed=0.00805x elapsed=0:03:27.05    \nframe=  102 fps=0.5 q=41.5 size=     256KiB time=00:00:01.66 bitrate=1258.5kbits/s speed=0.00803x elapsed=0:03:27.58    \nframe=  103 fps=0.5 q=44.4 size=     256KiB time=00:00:01.68 bitrate=1246.0kbits/s speed=0.00809x elapsed=0:03:28.13    \nframe=  103 fps=0.5 q=44.4 size=     256KiB time=00:00:01.68 bitrate=1246.0kbits/s speed=0.00806x elapsed=0:03:28.73    \nframe=  103 fps=0.5 q=44.4 size=     256KiB time=00:00:01.68 bitrate=1246.0kbits/s speed=0.00804x elapsed=0:03:29.26    \nframe=  103 fps=0.5 q=44.4 size=     256KiB time=00:00:01.68 bitrate=1246.0kbits/s speed=0.00802x elapsed=0:03:29.79    \nframe=  104 fps=0.5 q=38.8 size=     256KiB time=00:00:01.70 bitrate=1233.8kbits/s speed=0.00808x elapsed=0:03:30.33    \nframe=  105 fps=0.5 q=40.9 size=     256KiB time=00:00:01.71 bitrate=1221.8kbits/s speed=0.00814x elapsed=0:03:30.91    \nframe=  105 fps=0.5 q=40.9 size=     256KiB time=00:00:01.71 bitrate=1221.8kbits/s speed=0.00812x elapsed=0:03:31.49    \nframe=  105 fps=0.5 q=40.9 size=     256KiB time=00:00:01.71 bitrate=1221.8kbits/s speed=0.0081x elapsed=0:03:32.02    \nframe=  105 fps=0.5 q=40.9 size=     256KiB time=00:00:01.71 bitrate=1221.8kbits/s speed=0.00808x elapsed=0:03:32.55    \nframe=  105 fps=0.5 q=40.9 size=     256KiB time=00:00:01.71 bitrate=1221.8kbits/s speed=0.00806x elapsed=0:03:33.07    \nframe=  105 fps=0.5 q=40.9 size=     256KiB time=00:00:01.71 bitrate=1221.8kbits/s speed=0.00804x elapsed=0:03:33.59    \nframe=  105 fps=0.5 q=40.9 size=     256KiB time=00:00:01.71 bitrate=1221.8kbits/s speed=0.00802x elapsed=0:03:34.16    \nframe=  105 fps=0.5 q=40.9 size=     256KiB time=00:00:01.71 bitrate=1221.8kbits/s speed=0.00799x elapsed=0:03:34.76    \nframe=  106 fps=0.5 q=44.4 size=     256KiB time=00:00:01.73 bitrate=1210.1kbits/s speed=0.00805x elapsed=0:03:35.30    \nframe=  107 fps=0.5 q=38.8 size=     256KiB time=00:00:01.75 bitrate=1198.6kbits/s speed=0.00811x elapsed=0:03:35.84    \nframe=  108 fps=0.5 q=42.0 size=     256KiB time=00:00:01.76 bitrate=1187.3kbits/s speed=0.00816x elapsed=0:03:36.42    \nframe=  109 fps=0.5 q=44.3 size=     256KiB time=00:00:01.78 bitrate=1176.2kbits/s speed=0.00822x elapsed=0:03:36.94    \nframe=  109 fps=0.5 q=44.3 size=     256KiB time=00:00:01.78 bitrate=1176.2kbits/s speed=0.0082x elapsed=0:03:37.49    \nframe=  110 fps=0.5 q=44.5 size=     256KiB time=00:00:01.80 bitrate=1165.3kbits/s speed=0.00826x elapsed=0:03:38.00    \nframe=  110 fps=0.5 q=44.5 size=     256KiB time=00:00:01.80 bitrate=1165.3kbits/s speed=0.00824x elapsed=0:03:38.54    \nframe=  111 fps=0.5 q=44.4 size=     256KiB time=00:00:01.81 bitrate=1154.6kbits/s speed=0.00829x elapsed=0:03:39.06    \nframe=  111 fps=0.5 q=44.4 size=     256KiB time=00:00:01.81 bitrate=1154.6kbits/s speed=0.00827x elapsed=0:03:39.73    \nframe=  112 fps=0.5 q=38.6 size=     256KiB time=00:00:01.83 bitrate=1144.1kbits/s speed=0.00832x elapsed=0:03:40.29    \nframe=  113 fps=0.5 q=42.0 size=     256KiB time=00:00:01.85 bitrate=1133.8kbits/s speed=0.00838x elapsed=0:03:40.82    \nframe=  113 fps=0.5 q=42.0 size=     256KiB time=00:00:01.85 bitrate=1133.8kbits/s speed=0.00836x elapsed=0:03:41.39    \nframe=  114 fps=0.5 q=44.3 size=     256KiB time=00:00:01.86 bitrate=1123.7kbits/s speed=0.00841x elapsed=0:03:41.95    \nframe=  114 fps=0.5 q=44.3 size=     256KiB time=00:00:01.86 bitrate=1123.7kbits/s speed=0.00839x elapsed=0:03:42.52    \nframe=  114 fps=0.5 q=44.3 size=     256KiB time=00:00:01.86 bitrate=1123.7kbits/s speed=0.00837x elapsed=0:03:43.05    \nframe=  115 fps=0.5 q=44.6 size=     256KiB time=00:00:01.88 bitrate=1113.7kbits/s speed=0.00842x elapsed=0:03:43.57    \nframe=  115 fps=0.5 q=44.6 size=     256KiB time=00:00:01.88 bitrate=1113.7kbits/s speed=0.0084x elapsed=0:03:44.14    \nframe=  116 fps=0.5 q=38.8 size=     256KiB time=00:00:01.90 bitrate=1103.9kbits/s speed=0.00846x elapsed=0:03:44.66    \nframe=  117 fps=0.5 q=42.9 size=     256KiB time=00:00:01.91 bitrate=1094.3kbits/s speed=0.00851x elapsed=0:03:45.18    \nframe=  117 fps=0.5 q=42.9 size=     256KiB time=00:00:01.91 bitrate=1094.3kbits/s speed=0.00849x elapsed=0:03:45.71    \nframe=  117 fps=0.5 q=42.9 size=     256KiB time=00:00:01.91 bitrate=1094.3kbits/s speed=0.00847x elapsed=0:03:46.24    \nframe=  118 fps=0.5 q=44.3 size=     256KiB time=00:00:01.93 bitrate=1084.9kbits/s speed=0.00852x elapsed=0:03:46.80    \nframe=  118 fps=0.5 q=44.3 size=     256KiB time=00:00:01.93 bitrate=1084.9kbits/s speed=0.0085x elapsed=0:03:47.32    \nframe=  118 fps=0.5 q=44.3 size=     256KiB time=00:00:01.93 bitrate=1084.9kbits/s speed=0.00848x elapsed=0:03:47.87    \nframe=  120 fps=0.5 q=44.6 size=     256KiB time=00:00:01.96 bitrate=1066.5kbits/s speed=0.00861x elapsed=0:03:48.41    \nframe=  120 fps=0.5 q=44.6 size=     256KiB time=00:00:01.96 bitrate=1066.5kbits/s speed=0.00859x elapsed=0:03:48.93    \nframe=  120 fps=0.5 q=44.6 size=     256KiB time=00:00:01.96 bitrate=1066.5kbits/s speed=0.00857x elapsed=0:03:49.47    \nframe=  122 fps=0.5 q=42.1 size=     256KiB time=00:00:02.00 bitrate=1048.8kbits/s speed=0.00869x elapsed=0:03:50.02    \nframe=  122 fps=0.5 q=42.1 size=     256KiB time=00:00:02.00 bitrate=1048.8kbits/s speed=0.00867x elapsed=0:03:50.60    \nframe=  122 fps=0.5 q=42.1 size=     256KiB time=00:00:02.00 bitrate=1048.8kbits/s speed=0.00865x elapsed=0:03:51.15    \nframe=  123 fps=0.5 q=44.5 size=     256KiB time=00:00:02.01 bitrate=1040.1kbits/s speed=0.0087x elapsed=0:03:51.73    \nframe=  124 fps=0.5 q=44.5 size=     256KiB time=00:00:02.03 bitrate=1031.6kbits/s speed=0.00875x elapsed=0:03:52.25    \nframe=  126 fps=0.5 q=42.1 size=     256KiB time=00:00:02.06 bitrate=1014.9kbits/s speed=0.00887x elapsed=0:03:52.87    \nframe=  126 fps=0.5 q=42.1 size=     256KiB time=00:00:02.06 bitrate=1014.9kbits/s speed=0.00885x elapsed=0:03:53.58    \nframe=  127 fps=0.5 q=44.5 size=     256KiB time=00:00:02.08 bitrate=1006.8kbits/s speed=0.00889x elapsed=0:03:54.25    \nframe=  129 fps=0.5 q=38.6 size=     256KiB time=00:00:02.11 bitrate= 990.9kbits/s speed=0.00901x elapsed=0:03:54.81    \nframe=  129 fps=0.5 q=38.6 size=     256KiB time=00:00:02.11 bitrate= 990.9kbits/s speed=0.00899x elapsed=0:03:55.35    \nframe=  129 fps=0.5 q=38.6 size=     256KiB time=00:00:02.11 bitrate= 990.9kbits/s speed=0.00897x elapsed=0:03:55.97    \nframe=  129 fps=0.5 q=38.6 size=     256KiB time=00:00:02.11 bitrate= 990.9kbits/s speed=0.00895x elapsed=0:03:56.57    \nframe=  130 fps=0.5 q=43.2 size=     256KiB time=00:00:02.13 bitrate= 983.2kbits/s speed=0.009x elapsed=0:03:57.14    \nframe=  131 fps=0.6 q=44.3 size=     256KiB time=00:00:02.15 bitrate= 975.6kbits/s speed=0.00904x elapsed=0:03:57.71    \nframe=  131 fps=0.5 q=44.3 size=     256KiB time=00:00:02.15 bitrate= 975.6kbits/s speed=0.00902x elapsed=0:03:58.25    \nframe=  132 fps=0.6 q=38.6 size=     256KiB time=00:00:02.16 bitrate= 968.1kbits/s speed=0.00907x elapsed=0:03:58.80    \nframe=  132 fps=0.6 q=38.6 size=     256KiB time=00:00:02.16 bitrate= 968.1kbits/s speed=0.00905x elapsed=0:03:59.35    \nframe=  132 fps=0.6 q=38.6 size=     256KiB time=00:00:02.16 bitrate= 968.1kbits/s speed=0.00903x elapsed=0:03:59.93    \nframe=  132 fps=0.5 q=38.6 size=     256KiB time=00:00:02.16 bitrate= 968.1kbits/s speed=0.00901x elapsed=0:04:00.50    \nframe=  132 fps=0.5 q=38.6 size=     256KiB time=00:00:02.16 bitrate= 968.1kbits/s speed=0.00899x elapsed=0:04:01.04    \nframe=  132 fps=0.5 q=38.6 size=     256KiB time=00:00:02.16 bitrate= 968.1kbits/s speed=0.00897x elapsed=0:04:01.63    \nframe=  132 fps=0.5 q=38.6 size=     256KiB time=00:00:02.16 bitrate= 968.1kbits/s speed=0.00894x elapsed=0:04:02.26    \nframe=  132 fps=0.5 q=38.6 size=     256KiB time=00:00:02.16 bitrate= 968.1kbits/s speed=0.00892x elapsed=0:04:02.84    \nframe=  132 fps=0.5 q=38.6 size=     256KiB time=00:00:02.16 bitrate= 968.1kbits/s speed=0.0089x elapsed=0:04:03.53    \nframe=  132 fps=0.5 q=38.6 size=     256KiB time=00:00:02.16 bitrate= 968.1kbits/s speed=0.00887x elapsed=0:04:04.27    \nframe=  132 fps=0.5 q=38.6 size=     256KiB time=00:00:02.16 bitrate= 968.1kbits/s speed=0.00885x elapsed=0:04:04.84    \nframe=  132 fps=0.5 q=38.6 size=     256KiB time=00:00:02.16 bitrate= 968.1kbits/s speed=0.00883x elapsed=0:04:05.42    \nframe=  133 fps=0.5 q=42.0 size=     256KiB time=00:00:02.18 bitrate= 960.7kbits/s speed=0.00888x elapsed=0:04:05.97    \nframe=  133 fps=0.5 q=42.0 size=     256KiB time=00:00:02.18 bitrate= 960.7kbits/s speed=0.00886x elapsed=0:04:06.51    \nframe=  133 fps=0.5 q=42.0 size=     256KiB time=00:00:02.18 bitrate= 960.7kbits/s speed=0.00884x elapsed=0:04:07.07    \nframe=  133 fps=0.5 q=42.0 size=     256KiB time=00:00:02.18 bitrate= 960.7kbits/s speed=0.00882x elapsed=0:04:07.59    \nframe=  134 fps=0.5 q=44.3 size=     256KiB time=00:00:02.20 bitrate= 953.4kbits/s speed=0.00887x elapsed=0:04:08.10    \nframe=  135 fps=0.5 q=44.5 size=     256KiB time=00:00:02.21 bitrate= 946.2kbits/s speed=0.00891x elapsed=0:04:08.66    \nframe=  136 fps=0.5 q=38.3 size=     256KiB time=00:00:02.23 bitrate= 939.2kbits/s speed=0.00896x elapsed=0:04:09.19    \nframe=  136 fps=0.5 q=38.3 size=     256KiB time=00:00:02.23 bitrate= 939.2kbits/s speed=0.00894x elapsed=0:04:09.70    \nframe=  137 fps=0.5 q=43.0 size=     256KiB time=00:00:02.25 bitrate= 932.2kbits/s speed=0.00899x elapsed=0:04:10.22    \nframe=  137 fps=0.5 q=43.0 size=     256KiB time=00:00:02.25 bitrate= 932.2kbits/s speed=0.00897x elapsed=0:04:10.73    \nframe=  139 fps=0.6 q=44.6 size=     256KiB time=00:00:02.28 bitrate= 918.6kbits/s speed=0.00909x elapsed=0:04:11.24    \nframe=  141 fps=0.6 q=38.4 size=     256KiB time=00:00:02.31 bitrate= 905.4kbits/s speed=0.0092x elapsed=0:04:11.82    \nframe=  142 fps=0.6 q=43.1 size=     256KiB time=00:00:02.33 bitrate= 898.9kbits/s speed=0.00925x elapsed=0:04:12.34    \nframe=  144 fps=0.6 q=44.2 size=     256KiB time=00:00:02.35 bitrate= 892.6kbits/s speed=0.00929x elapsed=0:04:12.85    \nframe=  145 fps=0.6 q=44.6 size=     256KiB time=00:00:02.38 bitrate= 880.1kbits/s speed=0.00941x elapsed=0:04:13.40    \nframe=  145 fps=0.6 q=44.6 size=     256KiB time=00:00:02.38 bitrate= 880.1kbits/s speed=0.00939x elapsed=0:04:13.94    \nframe=  145 fps=0.6 q=44.6 size=     256KiB time=00:00:02.38 bitrate= 880.1kbits/s speed=0.00936x elapsed=0:04:14.55    \nframe=  145 fps=0.6 q=44.6 size=     256KiB time=00:00:02.38 bitrate= 880.1kbits/s speed=0.00934x elapsed=0:04:15.08    \nframe=  147 fps=0.6 q=42.0 size=     256KiB time=00:00:02.41 bitrate= 867.9kbits/s speed=0.00945x elapsed=0:04:15.63    \nframe=  148 fps=0.6 q=44.2 size=     256KiB time=00:00:02.43 bitrate= 862.0kbits/s speed=0.0095x elapsed=0:04:16.20    \nframe=  149 fps=0.6 q=38.2 size=     256KiB time=00:00:02.43 bitrate= 862.0kbits/s speed=0.00948x elapsed=0:04:16.78    \nframe=  149 fps=0.6 q=38.2 size=     256KiB time=00:00:02.45 bitrate= 856.1kbits/s speed=0.00952x elapsed=0:04:17.33    \nframe=  150 fps=0.6 q=41.6 size=     256KiB time=00:00:02.46 bitrate= 850.3kbits/s speed=0.00957x elapsed=0:04:17.84    \nframe=  151 fps=0.6 q=44.5 size=     256KiB time=00:00:02.48 bitrate= 844.6kbits/s speed=0.00961x elapsed=0:04:18.37    \nframe=  152 fps=0.6 q=44.5 size=     256KiB time=00:00:02.50 bitrate= 839.0kbits/s speed=0.00966x elapsed=0:04:18.93    \nframe=  152 fps=0.6 q=44.5 size=     256KiB time=00:00:02.50 bitrate= 839.0kbits/s speed=0.00964x elapsed=0:04:19.46    \nframe=  153 fps=0.6 q=38.5 size=     256KiB time=00:00:02.51 bitrate= 833.4kbits/s speed=0.00968x elapsed=0:04:19.98    \nframe=  154 fps=0.6 q=41.1 size=     256KiB time=00:00:02.53 bitrate= 828.0kbits/s speed=0.00972x elapsed=0:04:20.49    \nframe=  154 fps=0.6 q=41.1 size=     256KiB time=00:00:02.53 bitrate= 828.0kbits/s speed=0.00971x elapsed=0:04:21.02    \nframe=  155 fps=0.6 q=44.2 size=     256KiB time=00:00:02.55 bitrate= 822.6kbits/s speed=0.00975x elapsed=0:04:21.55    \nframe=  156 fps=0.6 q=44.4 size=     256KiB time=00:00:02.56 bitrate= 817.2kbits/s speed=0.00979x elapsed=0:04:22.10    \nframe=  156 fps=0.6 q=44.4 size=     256KiB time=00:00:02.56 bitrate= 817.2kbits/s speed=0.00977x elapsed=0:04:22.68    \nframe=  157 fps=0.6 q=38.4 size=     256KiB time=00:00:02.58 bitrate= 811.9kbits/s speed=0.00981x elapsed=0:04:23.25    \nframe=  158 fps=0.6 q=41.5 size=     256KiB time=00:00:02.60 bitrate= 806.7kbits/s speed=0.00986x elapsed=0:04:23.78    \nframe=  159 fps=0.6 q=44.4 size=     256KiB time=00:00:02.61 bitrate= 801.6kbits/s speed=0.0099x elapsed=0:04:24.30    \nframe=  160 fps=0.6 q=44.3 size=     256KiB time=00:00:02.63 bitrate= 796.5kbits/s speed=0.00994x elapsed=0:04:24.83    \nframe=  160 fps=0.6 q=44.3 size=     256KiB time=00:00:02.63 bitrate= 796.5kbits/s speed=0.00992x elapsed=0:04:25.41    \nframe=  161 fps=0.6 q=38.0 size=     256KiB time=00:00:02.65 bitrate= 791.5kbits/s speed=0.00996x elapsed=0:04:25.93    \nframe=  162 fps=0.6 q=41.7 size=     256KiB time=00:00:02.66 bitrate= 786.6kbits/s speed=0.01x elapsed=0:04:26.45    \nframe=  163 fps=0.6 q=44.1 size=     256KiB time=00:00:02.68 bitrate= 781.7kbits/s speed=0.0101x elapsed=0:04:26.97    \nframe=  164 fps=0.6 q=44.3 size=     256KiB time=00:00:02.70 bitrate= 776.9kbits/s speed=0.0101x elapsed=0:04:27.49    \nframe=  165 fps=0.6 q=38.4 size=     512KiB time=00:00:02.71 bitrate=1544.0kbits/s speed=0.0101x elapsed=0:04:28.01    \nframe=  165 fps=0.6 q=38.4 size=     512KiB time=00:00:02.71 bitrate=1544.0kbits/s speed=0.0101x elapsed=0:04:28.55    \nframe=  166 fps=0.6 q=41.4 size=     512KiB time=00:00:02.73 bitrate=1534.6kbits/s speed=0.0102x elapsed=0:04:29.06    \nframe=  167 fps=0.6 q=44.1 size=     512KiB time=00:00:02.75 bitrate=1525.3kbits/s speed=0.0102x elapsed=0:04:29.57    \nframe=  169 fps=0.6 q=38.3 size=     512KiB time=00:00:02.78 bitrate=1507.1kbits/s speed=0.0103x elapsed=0:04:30.09    \nframe=  170 fps=0.6 q=41.5 size=     512KiB time=00:00:02.80 bitrate=1498.1kbits/s speed=0.0103x elapsed=0:04:30.61    \nframe=  170 fps=0.6 q=41.5 size=     512KiB time=00:00:02.80 bitrate=1498.1kbits/s speed=0.0103x elapsed=0:04:31.14    \nframe=  171 fps=0.6 q=44.2 size=     512KiB time=00:00:02.81 bitrate=1489.2kbits/s speed=0.0104x elapsed=0:04:31.70    \nframe=  172 fps=0.6 q=44.1 size=     512KiB time=00:00:02.83 bitrate=1480.5kbits/s speed=0.0104x elapsed=0:04:32.23    \nframe=  172 fps=0.6 q=44.1 size=     512KiB time=00:00:02.83 bitrate=1480.5kbits/s speed=0.0104x elapsed=0:04:32.76    \nframe=  172 fps=0.6 q=44.1 size=     512KiB time=00:00:02.83 bitrate=1480.5kbits/s speed=0.0104x elapsed=0:04:33.28    \nframe=  172 fps=0.6 q=44.1 size=     512KiB time=00:00:02.83 bitrate=1480.5kbits/s speed=0.0103x elapsed=0:04:33.81    \nframe=  174 fps=0.6 q=41.3 size=     512KiB time=00:00:02.86 bitrate=1463.3kbits/s speed=0.0104x elapsed=0:04:34.33    \nframe=  175 fps=0.6 q=44.2 size=     512KiB time=00:00:02.88 bitrate=1454.8kbits/s speed=0.0105x elapsed=0:04:34.86    \nframe=  176 fps=0.6 q=44.3 size=     512KiB time=00:00:02.90 bitrate=1446.4kbits/s speed=0.0105x elapsed=0:04:35.39    \nframe=  177 fps=0.6 q=39.0 size=     512KiB time=00:00:02.91 bitrate=1438.2kbits/s speed=0.0106x elapsed=0:04:35.90    \nframe=  178 fps=0.6 q=41.5 size=     512KiB time=00:00:02.93 bitrate=1430.0kbits/s speed=0.0106x elapsed=0:04:36.47    \nframe=  178 fps=0.6 q=41.5 size=     512KiB time=00:00:02.93 bitrate=1430.0kbits/s speed=0.0106x elapsed=0:04:37.01    \nframe=  180 fps=0.6 q=44.3 size=     512KiB time=00:00:02.96 bitrate=1413.9kbits/s speed=0.0107x elapsed=0:04:37.54    \nframe=  181 fps=0.7 q=39.4 size=     512KiB time=00:00:02.96 bitrate=1413.9kbits/s speed=0.0107x elapsed=0:04:38.07    \nframe=  181 fps=0.6 q=39.4 size=     512KiB time=00:00:02.98 bitrate=1406.0kbits/s speed=0.0107x elapsed=0:04:38.60    \nframe=  181 fps=0.6 q=39.4 size=     512KiB time=00:00:02.98 bitrate=1406.0kbits/s speed=0.0107x elapsed=0:04:39.16    \nframe=  182 fps=0.7 q=41.5 size=     512KiB time=00:00:03.00 bitrate=1398.2kbits/s speed=0.0107x elapsed=0:04:39.68    \nframe=  182 fps=0.6 q=41.5 size=     512KiB time=00:00:03.00 bitrate=1398.2kbits/s speed=0.0107x elapsed=0:04:40.23    \nframe=  184 fps=0.7 q=44.3 size=     512KiB time=00:00:03.03 bitrate=1382.9kbits/s speed=0.0108x elapsed=0:04:40.74    \nframe=  185 fps=0.7 q=38.4 size=     512KiB time=00:00:03.05 bitrate=1375.3kbits/s speed=0.0108x elapsed=0:04:41.26    \nframe=  185 fps=0.7 q=38.4 size=     512KiB time=00:00:03.05 bitrate=1375.3kbits/s speed=0.0108x elapsed=0:04:41.78    \nframe=  186 fps=0.7 q=41.0 size=     512KiB time=00:00:03.06 bitrate=1367.8kbits/s speed=0.0109x elapsed=0:04:42.32    \nframe=  188 fps=0.7 q=44.3 size=     512KiB time=00:00:03.10 bitrate=1353.1kbits/s speed=0.011x elapsed=0:04:42.85    \nframe=  188 fps=0.7 q=44.3 size=     512KiB time=00:00:03.10 bitrate=1353.1kbits/s speed=0.0109x elapsed=0:04:43.37    \nframe=  188 fps=0.7 q=44.3 size=     512KiB time=00:00:03.10 bitrate=1353.1kbits/s speed=0.0109x elapsed=0:04:43.89    \nframe=  188 fps=0.7 q=44.3 size=     512KiB time=00:00:03.10 bitrate=1353.1kbits/s speed=0.0109x elapsed=0:04:44.45    \nframe=  189 fps=0.7 q=39.0 size=     512KiB time=00:00:03.11 bitrate=1345.9kbits/s speed=0.0109x elapsed=0:04:45.00    \nframe=  190 fps=0.7 q=41.7 size=     512KiB time=00:00:03.13 bitrate=1338.7kbits/s speed=0.011x elapsed=0:04:45.55    \nframe=  192 fps=0.7 q=44.4 size=     512KiB time=00:00:03.16 bitrate=1324.6kbits/s speed=0.0111x elapsed=0:04:46.08    \nframe=  192 fps=0.7 q=44.4 size=     512KiB time=00:00:03.16 bitrate=1324.6kbits/s speed=0.011x elapsed=0:04:46.60    \nframe=  193 fps=0.7 q=38.6 size=     512KiB time=00:00:03.18 bitrate=1317.7kbits/s speed=0.0111x elapsed=0:04:47.13    \nframe=  195 fps=0.7 q=44.2 size=     512KiB time=00:00:03.21 bitrate=1304.0kbits/s speed=0.0112x elapsed=0:04:47.66    \nframe=  196 fps=0.7 q=44.1 size=     512KiB time=00:00:03.23 bitrate=1297.3kbits/s speed=0.0112x elapsed=0:04:48.21    \nframe=  196 fps=0.7 q=44.1 size=     512KiB time=00:00:03.23 bitrate=1297.3kbits/s speed=0.0112x elapsed=0:04:48.75    \nframe=  198 fps=0.7 q=39.1 size=     512KiB time=00:00:03.26 bitrate=1284.1kbits/s speed=0.0113x elapsed=0:04:49.28    \nframe=  199 fps=0.7 q=41.6 size=     512KiB time=00:00:03.28 bitrate=1277.6kbits/s speed=0.0113x elapsed=0:04:49.84    \nframe=  199 fps=0.7 q=41.6 size=     512KiB time=00:00:03.28 bitrate=1277.6kbits/s speed=0.0113x elapsed=0:04:50.36    \nframe=  201 fps=0.7 q=44.3 size=     512KiB time=00:00:03.31 bitrate=1264.7kbits/s speed=0.0114x elapsed=0:04:50.86    \nframe=  201 fps=0.7 q=44.3 size=     512KiB time=00:00:03.31 bitrate=1264.7kbits/s speed=0.0114x elapsed=0:04:51.39    \nframe=  201 fps=0.7 q=44.3 size=     512KiB time=00:00:03.31 bitrate=1264.7kbits/s speed=0.0114x elapsed=0:04:51.90    \nframe=  202 fps=0.7 q=39.4 size=     512KiB time=00:00:03.33 bitrate=1258.4kbits/s speed=0.0114x elapsed=0:04:52.42    \nframe=  203 fps=0.7 q=42.2 size=     512KiB time=00:00:03.35 bitrate=1252.1kbits/s speed=0.0114x elapsed=0:04:53.02    \nframe=  204 fps=0.7 q=44.3 size=     512KiB time=00:00:03.36 bitrate=1245.9kbits/s speed=0.0115x elapsed=0:04:53.58    \nframe=  204 fps=0.7 q=44.3 size=     512KiB time=00:00:03.36 bitrate=1245.9kbits/s speed=0.0114x elapsed=0:04:54.10    \nframe=  204 fps=0.7 q=44.3 size=     512KiB time=00:00:03.36 bitrate=1245.9kbits/s speed=0.0114x elapsed=0:04:54.63    \nframe=  204 fps=0.7 q=44.3 size=     512KiB time=00:00:03.36 bitrate=1245.9kbits/s speed=0.0114x elapsed=0:04:55.16    \nframe=  205 fps=0.7 q=39.2 size=     512KiB time=00:00:03.38 bitrate=1239.8kbits/s speed=0.0114x elapsed=0:04:55.69    \nframe=  206 fps=0.7 q=42.7 size=     512KiB time=00:00:03.40 bitrate=1233.7kbits/s speed=0.0115x elapsed=0:04:56.24    \nframe=  206 fps=0.7 q=42.7 size=     512KiB time=00:00:03.40 bitrate=1233.7kbits/s speed=0.0115x elapsed=0:04:56.77    \nframe=  206 fps=0.7 q=42.7 size=     512KiB time=00:00:03.40 bitrate=1233.7kbits/s speed=0.0114x elapsed=0:04:57.32    \nframe=  206 fps=0.7 q=42.7 size=     512KiB time=00:00:03.40 bitrate=1233.7kbits/s speed=0.0114x elapsed=0:04:57.86    \nframe=  207 fps=0.7 q=44.6 size=     512KiB time=00:00:03.41 bitrate=1227.7kbits/s speed=0.0114x elapsed=0:04:58.42    \nframe=  208 fps=0.7 q=44.2 size=     512KiB time=00:00:03.43 bitrate=1221.7kbits/s speed=0.0115x elapsed=0:04:58.96    \nframe=  208 fps=0.7 q=44.2 size=     512KiB time=00:00:03.43 bitrate=1221.7kbits/s speed=0.0115x elapsed=0:04:59.50    \nframe=  208 fps=0.7 q=44.2 size=     512KiB time=00:00:03.43 bitrate=1221.7kbits/s speed=0.0114x elapsed=0:05:00.06    \nframe=  209 fps=0.7 q=39.8 size=     512KiB time=00:00:03.45 bitrate=1215.8kbits/s speed=0.0115x elapsed=0:05:00.60    \nframe=  210 fps=0.7 q=43.9 size=     512KiB time=00:00:03.46 bitrate=1210.0kbits/s speed=0.0115x elapsed=0:05:01.12    \nframe=  210 fps=0.7 q=43.9 size=     512KiB time=00:00:03.46 bitrate=1210.0kbits/s speed=0.0115x elapsed=0:05:01.66    \nframe=  211 fps=0.7 q=45.2 size=     512KiB time=00:00:03.48 bitrate=1204.2kbits/s speed=0.0115x elapsed=0:05:02.21    \nframe=  211 fps=0.7 q=45.2 size=     512KiB time=00:00:03.48 bitrate=1204.2kbits/s speed=0.0115x elapsed=0:05:02.74    \nframe=  212 fps=0.7 q=45.4 size=     512KiB time=00:00:03.50 bitrate=1198.5kbits/s speed=0.0115x elapsed=0:05:03.26    \nframe=  212 fps=0.7 q=45.4 size=     512KiB time=00:00:03.50 bitrate=1198.5kbits/s speed=0.0115x elapsed=0:05:03.78    \nframe=  213 fps=0.7 q=40.6 size=     512KiB time=00:00:03.51 bitrate=1192.8kbits/s speed=0.0116x elapsed=0:05:04.30    \nframe=  213 fps=0.7 q=40.6 size=     512KiB time=00:00:03.51 bitrate=1192.8kbits/s speed=0.0115x elapsed=0:05:04.82    \nframe=  213 fps=0.7 q=40.6 size=     512KiB time=00:00:03.51 bitrate=1192.8kbits/s speed=0.0115x elapsed=0:05:05.35    \nframe=  213 fps=0.7 q=40.6 size=     512KiB time=00:00:03.51 bitrate=1192.8kbits/s speed=0.0115x elapsed=0:05:05.86    \nframe=  213 fps=0.7 q=40.6 size=     512KiB time=00:00:03.51 bitrate=1192.8kbits/s speed=0.0115x elapsed=0:05:06.38    \nframe=  214 fps=0.7 q=44.1 size=     512KiB time=00:00:03.53 bitrate=1187.2kbits/s speed=0.0115x elapsed=0:05:06.91    \nframe=  214 fps=0.7 q=44.1 size=     512KiB time=00:00:03.53 bitrate=1187.2kbits/s speed=0.0115x elapsed=0:05:07.44    \nframe=  216 fps=0.7 q=46.1 size=     512KiB time=00:00:03.56 bitrate=1176.1kbits/s speed=0.0116x elapsed=0:05:07.96    \nframe=  216 fps=0.7 q=46.1 size=     512KiB time=00:00:03.56 bitrate=1176.1kbits/s speed=0.0116x elapsed=0:05:08.50    \nframe=  216 fps=0.7 q=46.1 size=     512KiB time=00:00:03.56 bitrate=1176.1kbits/s speed=0.0115x elapsed=0:05:09.03    \nframe=  216 fps=0.7 q=46.1 size=     512KiB time=00:00:03.56 bitrate=1176.1kbits/s speed=0.0115x elapsed=0:05:09.54    \nframe=  217 fps=0.7 q=41.6 size=     512KiB time=00:00:03.58 bitrate=1170.6kbits/s speed=0.0116x elapsed=0:05:10.06    \nframe=  217 fps=0.7 q=41.6 size=     512KiB time=00:00:03.58 bitrate=1170.6kbits/s speed=0.0115x elapsed=0:05:10.58    \nframe=  217 fps=0.7 q=41.6 size=     512KiB time=00:00:03.58 bitrate=1170.6kbits/s speed=0.0115x elapsed=0:05:11.10    \nframe=  218 fps=0.7 q=45.1 size=     512KiB time=00:00:03.60 bitrate=1165.2kbits/s speed=0.0116x elapsed=0:05:11.64    \nframe=  218 fps=0.7 q=45.1 size=     512KiB time=00:00:03.60 bitrate=1165.2kbits/s speed=0.0115x elapsed=0:05:12.17    \nframe=  219 fps=0.7 q=46.4 size=     512KiB time=00:00:03.61 bitrate=1159.8kbits/s speed=0.0116x elapsed=0:05:12.68    \nframe=  219 fps=0.7 q=46.4 size=     512KiB time=00:00:03.61 bitrate=1159.8kbits/s speed=0.0115x elapsed=0:05:13.21    \nframe=  220 fps=0.7 q=46.9 size=     512KiB time=00:00:03.63 bitrate=1154.5kbits/s speed=0.0116x elapsed=0:05:13.75    \nframe=  220 fps=0.7 q=46.9 size=     512KiB time=00:00:03.63 bitrate=1154.5kbits/s speed=0.0116x elapsed=0:05:14.28    \nframe=  220 fps=0.7 q=46.9 size=     512KiB time=00:00:03.63 bitrate=1154.5kbits/s speed=0.0115x elapsed=0:05:14.83    \nframe=  221 fps=0.7 q=42.1 size=     512KiB time=00:00:03.65 bitrate=1149.2kbits/s speed=0.0116x elapsed=0:05:15.35    \nframe=  222 fps=0.7 q=45.4 size=     512KiB time=00:00:03.66 bitrate=1144.0kbits/s speed=0.0116x elapsed=0:05:15.88    \nframe=  223 fps=0.7 q=47.1 size=     512KiB time=00:00:03.68 bitrate=1138.8kbits/s speed=0.0116x elapsed=0:05:16.41    \nframe=  223 fps=0.7 q=47.1 size=     512KiB time=00:00:03.68 bitrate=1138.8kbits/s speed=0.0116x elapsed=0:05:16.95    \nframe=  224 fps=0.7 q=47.3 size=     512KiB time=00:00:03.70 bitrate=1133.7kbits/s speed=0.0117x elapsed=0:05:17.47    \nframe=  224 fps=0.7 q=47.3 size=     512KiB time=00:00:03.70 bitrate=1133.7kbits/s speed=0.0116x elapsed=0:05:18.01    \nframe=  224 fps=0.7 q=47.3 size=     512KiB time=00:00:03.70 bitrate=1133.7kbits/s speed=0.0116x elapsed=0:05:18.53    \nframe=  225 fps=0.7 q=42.5 size=     512KiB time=00:00:03.71 bitrate=1128.6kbits/s speed=0.0116x elapsed=0:05:19.07    \nframe=  226 fps=0.7 q=45.7 size=     512KiB time=00:00:03.73 bitrate=1123.6kbits/s speed=0.0117x elapsed=0:05:19.60    \nframe=  226 fps=0.7 q=45.7 size=     512KiB time=00:00:03.73 bitrate=1123.6kbits/s speed=0.0117x elapsed=0:05:20.13    \nframe=  227 fps=0.7 q=47.3 size=     512KiB time=00:00:03.75 bitrate=1118.6kbits/s speed=0.0117x elapsed=0:05:20.66    \nframe=  227 fps=0.7 q=47.3 size=     512KiB time=00:00:03.75 bitrate=1118.6kbits/s speed=0.0117x elapsed=0:05:21.17    \nframe=  228 fps=0.7 q=43.1 size=     512KiB time=00:00:03.76 bitrate=1113.6kbits/s speed=0.0117x elapsed=0:05:21.71    \nframe=  228 fps=0.7 q=43.1 size=     512KiB time=00:00:03.76 bitrate=1113.6kbits/s speed=0.0117x elapsed=0:05:22.25    \nframe=  229 fps=0.7 q=47.1 size=     512KiB time=00:00:03.78 bitrate=1108.7kbits/s speed=0.0117x elapsed=0:05:22.77    \nframe=  229 fps=0.7 q=47.1 size=     512KiB time=00:00:03.78 bitrate=1108.7kbits/s speed=0.0117x elapsed=0:05:23.30    \nframe=  230 fps=0.7 q=47.9 size=     512KiB time=00:00:03.80 bitrate=1103.9kbits/s speed=0.0117x elapsed=0:05:23.83    \nframe=  231 fps=0.7 q=42.9 size=     512KiB time=00:00:03.81 bitrate=1099.0kbits/s speed=0.0118x elapsed=0:05:24.35    \nframe=  231 fps=0.7 q=42.9 size=     512KiB time=00:00:03.81 bitrate=1099.0kbits/s speed=0.0117x elapsed=0:05:24.86    \nframe=  232 fps=0.7 q=46.4 size=     512KiB time=00:00:03.83 bitrate=1094.3kbits/s speed=0.0118x elapsed=0:05:25.39    \nframe=  233 fps=0.7 q=48.0 size=     512KiB time=00:00:03.85 bitrate=1089.5kbits/s speed=0.0118x elapsed=0:05:25.90    \nframe=  233 fps=0.7 q=48.0 size=     512KiB time=00:00:03.85 bitrate=1089.5kbits/s speed=0.0118x elapsed=0:05:26.41    \nframe=  234 fps=0.7 q=42.2 size=     512KiB time=00:00:03.86 bitrate=1084.8kbits/s speed=0.0118x elapsed=0:05:26.93    \nframe=  235 fps=0.7 q=46.3 size=     512KiB time=00:00:03.88 bitrate=1080.2kbits/s speed=0.0119x elapsed=0:05:27.45    \nframe=  236 fps=0.7 q=47.8 size=     512KiB time=00:00:03.90 bitrate=1075.6kbits/s speed=0.0119x elapsed=0:05:27.96    \nframe=  236 fps=0.7 q=47.8 size=     512KiB time=00:00:03.90 bitrate=1075.6kbits/s speed=0.0119x elapsed=0:05:28.49    \nframe=  236 fps=0.7 q=47.8 size=     512KiB time=00:00:03.90 bitrate=1075.6kbits/s speed=0.0119x elapsed=0:05:29.00    \nframe=  237 fps=0.7 q=42.4 size=     512KiB time=00:00:03.91 bitrate=1071.0kbits/s speed=0.0119x elapsed=0:05:29.53    \nframe=  238 fps=0.7 q=46.1 size=     512KiB time=00:00:03.93 bitrate=1066.4kbits/s speed=0.0119x elapsed=0:05:30.04    \nframe=  239 fps=0.7 q=47.2 size=     512KiB time=00:00:03.95 bitrate=1061.9kbits/s speed=0.0119x elapsed=0:05:30.56    \nframe=  239 fps=0.7 q=47.2 size=     512KiB time=00:00:03.95 bitrate=1061.9kbits/s speed=0.0119x elapsed=0:05:31.08    \nframe=  240 fps=0.7 q=42.4 size=     512KiB time=00:00:03.96 bitrate=1057.5kbits/s speed=0.012x elapsed=0:05:31.62    \nframe=  241 fps=0.7 q=47.0 size=     768KiB time=00:00:03.98 bitrate=1579.5kbits/s speed=0.012x elapsed=0:05:32.15    \nframe=  241 fps=0.7 q=47.0 size=     768KiB time=00:00:03.98 bitrate=1579.5kbits/s speed=0.012x elapsed=0:05:32.67    \nframe=  242 fps=0.7 q=41.8 size=     768KiB time=00:00:04.00 bitrate=1573.0kbits/s speed=0.012x elapsed=0:05:33.18    \nframe=  243 fps=0.7 q=45.9 size=     768KiB time=00:00:04.01 bitrate=1566.4kbits/s speed=0.012x elapsed=0:05:33.69    \nframe=  243 fps=0.7 q=45.9 size=     768KiB time=00:00:04.01 bitrate=1566.4kbits/s speed=0.012x elapsed=0:05:34.21    \nframe=  243 fps=0.7 q=45.9 size=     768KiB time=00:00:04.01 bitrate=1566.4kbits/s speed=0.012x elapsed=0:05:34.74    \nframe=  245 fps=0.7 q=41.4 size=     768KiB time=00:00:04.05 bitrate=1553.5kbits/s speed=0.0121x elapsed=0:05:35.27    \nframe=  246 fps=0.7 q=45.9 size=     768KiB time=00:00:04.06 bitrate=1547.2kbits/s speed=0.0121x elapsed=0:05:35.82    \nframe=  247 fps=0.7 q=47.2 size=     768KiB time=00:00:04.08 bitrate=1540.9kbits/s speed=0.0121x elapsed=0:05:36.36    \nframe=  247 fps=0.7 q=47.2 size=     768KiB time=00:00:04.08 bitrate=1540.9kbits/s speed=0.0121x elapsed=0:05:36.88    \nframe=  247 fps=0.7 q=47.2 size=     768KiB time=00:00:04.08 bitrate=1540.9kbits/s speed=0.0121x elapsed=0:05:37.43    \nframe=  247 fps=0.7 q=47.2 size=     768KiB time=00:00:04.08 bitrate=1540.9kbits/s speed=0.0121x elapsed=0:05:37.97    \nframe=  248 fps=0.7 q=40.8 size=     768KiB time=00:00:04.10 bitrate=1534.6kbits/s speed=0.0121x elapsed=0:05:38.49    \nframe=  248 fps=0.7 q=40.8 size=     768KiB time=00:00:04.10 bitrate=1534.6kbits/s speed=0.0121x elapsed=0:05:39.02    \nframe=  249 fps=0.7 q=45.2 size=     768KiB time=00:00:04.11 bitrate=1528.4kbits/s speed=0.0121x elapsed=0:05:39.52    \nframe=  250 fps=0.7 q=47.0 size=     768KiB time=00:00:04.13 bitrate=1522.2kbits/s speed=0.0122x elapsed=0:05:40.05    \nframe=  250 fps=0.7 q=47.0 size=     768KiB time=00:00:04.13 bitrate=1522.2kbits/s speed=0.0121x elapsed=0:05:40.57    \nframe=  251 fps=0.7 q=38.8 size=     768KiB time=00:00:04.15 bitrate=1516.1kbits/s speed=0.0122x elapsed=0:05:41.09    \nframe=  251 fps=0.7 q=38.8 size=     768KiB time=00:00:04.15 bitrate=1516.1kbits/s speed=0.0121x elapsed=0:05:41.61    \nframe=  251 fps=0.7 q=38.8 size=     768KiB time=00:00:04.15 bitrate=1516.1kbits/s speed=0.0121x elapsed=0:05:42.12    \nframe=  252 fps=0.7 q=39.2 size=     768KiB time=00:00:04.16 bitrate=1510.0kbits/s speed=0.0122x elapsed=0:05:42.64    \nframe=  252 fps=0.7 q=39.2 size=     768KiB time=00:00:04.16 bitrate=1510.0kbits/s speed=0.0121x elapsed=0:05:43.19    \nframe=  254 fps=0.7 q=46.2 size=     768KiB time=00:00:04.20 bitrate=1498.0kbits/s speed=0.0122x elapsed=0:05:43.71    \nframe=  254 fps=0.7 q=46.2 size=     768KiB time=00:00:04.20 bitrate=1498.0kbits/s speed=0.0122x elapsed=0:05:44.23    \nframe=  255 fps=0.7 q=46.0 size=     768KiB time=00:00:04.21 bitrate=1492.1kbits/s speed=0.0122x elapsed=0:05:44.76    \nframe=  256 fps=0.7 q=45.5 size=     768KiB time=00:00:04.23 bitrate=1486.3kbits/s speed=0.0123x elapsed=0:05:45.30    \nframe=  256 fps=0.7 q=45.5 size=     768KiB time=00:00:04.23 bitrate=1486.3kbits/s speed=0.0122x elapsed=0:05:45.82    \nframe=  257 fps=0.7 q=38.9 size=     768KiB time=00:00:04.23 bitrate=1486.3kbits/s speed=0.0122x elapsed=0:05:46.34    \nframe=  258 fps=0.7 q=43.2 size=     768KiB time=00:00:04.26 bitrate=1474.6kbits/s speed=0.0123x elapsed=0:05:46.94    \nframe=  258 fps=0.7 q=43.2 size=     768KiB time=00:00:04.26 bitrate=1474.6kbits/s speed=0.0123x elapsed=0:05:47.54    \nframe=  258 fps=0.7 q=43.2 size=     768KiB time=00:00:04.26 bitrate=1474.6kbits/s speed=0.0123x elapsed=0:05:48.09    \nframe=  258 fps=0.7 q=43.2 size=     768KiB time=00:00:04.26 bitrate=1474.6kbits/s speed=0.0122x elapsed=0:05:48.71    \nframe=  258 fps=0.7 q=43.2 size=     768KiB time=00:00:04.26 bitrate=1474.6kbits/s speed=0.0122x elapsed=0:05:49.25    \nframe=  259 fps=0.7 q=45.4 size=     768KiB time=00:00:04.28 bitrate=1468.9kbits/s speed=0.0122x elapsed=0:05:49.82    \nframe=  259 fps=0.7 q=45.4 size=     768KiB time=00:00:04.28 bitrate=1468.9kbits/s speed=0.0122x elapsed=0:05:50.40    \nframe=  259 fps=0.7 q=45.4 size=     768KiB time=00:00:04.28 bitrate=1468.9kbits/s speed=0.0122x elapsed=0:05:50.92    \nframe=  259 fps=0.7 q=45.4 size=     768KiB time=00:00:04.28 bitrate=1468.9kbits/s speed=0.0122x elapsed=0:05:51.52    \nframe=  259 fps=0.7 q=45.4 size=     768KiB time=00:00:04.28 bitrate=1468.9kbits/s speed=0.0122x elapsed=0:05:52.12    \nframe=  259 fps=0.7 q=45.4 size=     768KiB time=00:00:04.28 bitrate=1468.9kbits/s speed=0.0121x elapsed=0:05:52.69    \nframe=  260 fps=0.7 q=44.8 size=     768KiB time=00:00:04.30 bitrate=1463.2kbits/s speed=0.0122x elapsed=0:05:53.22    \nframe=  261 fps=0.7 q=39.0 size=     768KiB time=00:00:04.31 bitrate=1457.6kbits/s speed=0.0122x elapsed=0:05:53.75    \nframe=  262 fps=0.7 q=42.4 size=     768KiB time=00:00:04.33 bitrate=1452.0kbits/s speed=0.0122x elapsed=0:05:54.26    \nframe=  262 fps=0.7 q=42.4 size=     768KiB time=00:00:04.33 bitrate=1452.0kbits/s speed=0.0122x elapsed=0:05:54.80    \nframe=  263 fps=0.7 q=44.4 size=     768KiB time=00:00:04.35 bitrate=1446.4kbits/s speed=0.0122x elapsed=0:05:55.35    \nframe=  263 fps=0.7 q=44.4 size=     768KiB time=00:00:04.35 bitrate=1446.4kbits/s speed=0.0122x elapsed=0:05:55.88    \nframe=  263 fps=0.7 q=44.4 size=     768KiB time=00:00:04.35 bitrate=1446.4kbits/s speed=0.0122x elapsed=0:05:56.40    \nframe=  264 fps=0.7 q=44.7 size=     768KiB time=00:00:04.36 bitrate=1440.9kbits/s speed=0.0122x elapsed=0:05:56.92    \nframe=  264 fps=0.7 q=44.7 size=     768KiB time=00:00:04.36 bitrate=1440.9kbits/s speed=0.0122x elapsed=0:05:57.43    \nframe=  265 fps=0.7 q=39.1 size=     768KiB time=00:00:04.38 bitrate=1435.4kbits/s speed=0.0122x elapsed=0:05:57.97    \nframe=  265 fps=0.7 q=39.1 size=     768KiB time=00:00:04.38 bitrate=1435.4kbits/s speed=0.0122x elapsed=0:05:58.48    \nframe=  266 fps=0.7 q=42.1 size=     768KiB time=00:00:04.40 bitrate=1430.0kbits/s speed=0.0123x elapsed=0:05:59.01    \nframe=  266 fps=0.7 q=42.1 size=     768KiB time=00:00:04.40 bitrate=1430.0kbits/s speed=0.0122x elapsed=0:05:59.54    \nframe=  267 fps=0.7 q=44.2 size=     768KiB time=00:00:04.41 bitrate=1424.6kbits/s speed=0.0123x elapsed=0:06:00.09    \nframe=  268 fps=0.7 q=44.2 size=     768KiB time=00:00:04.43 bitrate=1419.2kbits/s speed=0.0123x elapsed=0:06:00.62    \nframe=  269 fps=0.7 q=38.6 size=     768KiB time=00:00:04.45 bitrate=1413.9kbits/s speed=0.0123x elapsed=0:06:01.14    \nframe=  270 fps=0.7 q=41.8 size=     768KiB time=00:00:04.46 bitrate=1408.6kbits/s speed=0.0123x elapsed=0:06:01.67    \nframe=  270 fps=0.7 q=41.8 size=     768KiB time=00:00:04.46 bitrate=1408.6kbits/s speed=0.0123x elapsed=0:06:02.18    \nframe=  271 fps=0.7 q=44.4 size=     768KiB time=00:00:04.48 bitrate=1403.4kbits/s speed=0.0124x elapsed=0:06:02.70    \nframe=  272 fps=0.7 q=44.4 size=     768KiB time=00:00:04.50 bitrate=1398.2kbits/s speed=0.0124x elapsed=0:06:03.21    \nframe=  273 fps=0.8 q=38.7 size=     768KiB time=00:00:04.51 bitrate=1393.0kbits/s speed=0.0124x elapsed=0:06:03.73    \nframe=  273 fps=0.7 q=38.7 size=     768KiB time=00:00:04.51 bitrate=1393.0kbits/s speed=0.0124x elapsed=0:06:04.26    \nframe=  274 fps=0.8 q=41.7 size=     768KiB time=00:00:04.53 bitrate=1387.9kbits/s speed=0.0124x elapsed=0:06:04.79    \nframe=  275 fps=0.8 q=44.2 size=     768KiB time=00:00:04.55 bitrate=1382.8kbits/s speed=0.0125x elapsed=0:06:05.31    \nframe=  276 fps=0.8 q=44.5 size=     768KiB time=00:00:04.56 bitrate=1377.8kbits/s speed=0.0125x elapsed=0:06:05.82    \nframe=  276 fps=0.8 q=44.5 size=     768KiB time=00:00:04.56 bitrate=1377.8kbits/s speed=0.0125x elapsed=0:06:06.34    \nframe=  277 fps=0.8 q=39.1 size=     768KiB time=00:00:04.58 bitrate=1372.8kbits/s speed=0.0125x elapsed=0:06:06.85    \nframe=  278 fps=0.8 q=41.7 size=     768KiB time=00:00:04.60 bitrate=1367.8kbits/s speed=0.0125x elapsed=0:06:07.37    \nframe=  278 fps=0.8 q=41.7 size=     768KiB time=00:00:04.60 bitrate=1367.8kbits/s speed=0.0125x elapsed=0:06:07.88    \nframe=  280 fps=0.8 q=44.1 size=     768KiB time=00:00:04.63 bitrate=1357.9kbits/s speed=0.0126x elapsed=0:06:08.43    \nframe=  281 fps=0.8 q=39.6 size=     768KiB time=00:00:04.65 bitrate=1353.1kbits/s speed=0.0126x elapsed=0:06:08.94    \nframe=  282 fps=0.8 q=41.7 size=     768KiB time=00:00:04.66 bitrate=1348.2kbits/s speed=0.0126x elapsed=0:06:09.47    \nframe=  282 fps=0.8 q=41.7 size=     768KiB time=00:00:04.66 bitrate=1348.2kbits/s speed=0.0126x elapsed=0:06:09.98    \nframe=  283 fps=0.8 q=43.9 size=     768KiB time=00:00:04.68 bitrate=1343.4kbits/s speed=0.0126x elapsed=0:06:10.51    \nframe=  284 fps=0.8 q=44.4 size=     768KiB time=00:00:04.70 bitrate=1338.7kbits/s speed=0.0127x elapsed=0:06:11.03    \nframe=  285 fps=0.8 q=39.1 size=     768KiB time=00:00:04.71 bitrate=1334.0kbits/s speed=0.0127x elapsed=0:06:11.56    \nframe=  287 fps=0.8 q=44.5 size=     768KiB time=00:00:04.75 bitrate=1324.6kbits/s speed=0.0128x elapsed=0:06:12.07    \nframe=  288 fps=0.8 q=44.6 size=     768KiB time=00:00:04.76 bitrate=1320.0kbits/s speed=0.0128x elapsed=0:06:12.59    \nframe=  289 fps=0.8 q=39.6 size=     768KiB time=00:00:04.78 bitrate=1315.4kbits/s speed=0.0128x elapsed=0:06:13.11    \nframe=  290 fps=0.8 q=42.1 size=     768KiB time=00:00:04.80 bitrate=1310.8kbits/s speed=0.0128x elapsed=0:06:13.63    \nframe=  292 fps=0.8 q=44.6 size=     768KiB time=00:00:04.83 bitrate=1301.8kbits/s speed=0.0129x elapsed=0:06:14.15    \nframe=  292 fps=0.8 q=44.6 size=     768KiB time=00:00:04.83 bitrate=1301.8kbits/s speed=0.0129x elapsed=0:06:14.67    \nframe=  294 fps=0.8 q=42.6 size=     768KiB time=00:00:04.86 bitrate=1292.8kbits/s speed=0.013x elapsed=0:06:15.18    \nframe=  296 fps=0.8 q=44.6 size=     768KiB time=00:00:04.90 bitrate=1284.0kbits/s speed=0.013x elapsed=0:06:15.69    \nframe=  296 fps=0.8 q=44.6 size=     768KiB time=00:00:04.90 bitrate=1284.0kbits/s speed=0.013x elapsed=0:06:16.21    \nframe=  297 fps=0.8 q=41.1 size=     768KiB time=00:00:04.91 bitrate=1279.7kbits/s speed=0.0131x elapsed=0:06:16.73    \nframe=  297 fps=0.8 q=41.1 size=     768KiB time=00:00:04.91 bitrate=1279.7kbits/s speed=0.013x elapsed=0:06:17.27    \nframe=  298 fps=0.8 q=41.6 size=     768KiB time=00:00:04.93 bitrate=1275.4kbits/s speed=0.0131x elapsed=0:06:17.80    \n[mp4 @ 0000022df082aa40] Starting second pass: moving the moov atom to the beginning of the file\n[out#0/mp4 @ 0000022df10de040] video:932KiB audio:0KiB subtitle:0KiB other streams:0KiB global headers:2KiB muxing overhead: 0.751338%\nframe=  300 fps=0.8 q=44.6 Lsize=     939KiB time=00:00:04.96 bitrate=1548.7kbits/s speed=0.0131x elapsed=0:06:18.19    \nx265 [info]: frame I:      2, Avg QP:40.26  kb/s: 4731.60 \nx265 [info]: frame P:     76, Avg QP:39.09  kb/s: 3038.77 \nx265 [info]: frame B:    222, Avg QP:43.46  kb/s: 977.82  \nx265 [info]: Weighted P-Frames: Y:0.0% UV:0.0%\n\nencoded 300 frames in 376.87s (0.80 fps), 1524.96 kb/s, Avg QP:42.33\n",
  "seconds": 378.57178592681885,
  "probe_out": {}
}